<svg width="375" height="139" viewBox="0 0 375 139" fill="none" xmlns="http://www.w3.org/2000/svg">
<g filter="url(#filter0_d)">
<path d="M0 125C5.22849 109 21.9597 56.3636 62.7419 54C103.524 51.6364 104.57 125 162.083 125C219.597 125 223.78 0.999994 279.202 1C334.624 1.00001 322.075 96 389 96" stroke="black" stroke-width="2"/>
<path d="M0 125C5.22849 109 21.9597 56.3636 62.7419 54C103.524 51.6364 104.57 125 162.083 125C219.597 125 223.78 0.999994 279.202 1C334.624 1.00001 322.075 96 389 96" stroke="url(#paint0_linear)" stroke-width="2"/>
</g>
<defs>
<filter id="filter0_d" x="-0.950562" y="0" width="412.951" height="139" filterUnits="userSpaceOnUse" color-interpolation-filters="sRGB">
<feFlood flood-opacity="0" result="BackgroundImageFix"/>
<feColorMatrix in="SourceAlpha" type="matrix" values="0 0 0 0 0 0 0 0 0 0 0 0 0 0 0 0 0 0 127 0"/>
<feOffset dx="20" dy="10"/>
<feGaussianBlur stdDeviation="1.5"/>
<feColorMatrix type="matrix" values="0 0 0 0 0.6 0 0 0 0 0.5525 0 0 0 0 0.5525 0 0 0 0.21 0"/>
<feBlend mode="normal" in2="BackgroundImageFix" result="effect1_dropShadow"/>
<feBlend mode="normal" in="SourceGraphic" in2="effect1_dropShadow" result="shape"/>
</filter>
<linearGradient id="paint0_linear" x1="194.5" y1="139" x2="194.5" y2="63" gradientUnits="userSpaceOnUse">
<stop stop-color="#779CC4"/>
<stop offset="0.447917" stop-color="#A3CBF6"/>
</linearGradient>
</defs>
</svg>
