<svg width="857" height="177" viewBox="0 0 857 177" fill="none" xmlns="http://www.w3.org/2000/svg">
<g filter="url(#filter0_d)">
<path d="M1 163C11.2957 147 73.0968 92 139.548 92C206 92 221.914 163 335.167 163C448.419 163 479.081 39 565.79 39C652.5 39 702.215 163 834 163" stroke="black" stroke-width="2"/>
<path d="M1 163C11.2957 147 73.0968 92 139.548 92C206 92 221.914 163 335.167 163C448.419 163 479.081 39 565.79 39C652.5 39 702.215 163 834 163" stroke="url(#paint0_linear)" stroke-width="2"/>
</g>
<circle r="7" transform="matrix(1 0 0 -1 558 38)" fill="#FE7975"/>
<circle r="4.84615" transform="matrix(1 0 0 -1 558 38)" fill="white"/>
<circle cx="580" cy="15" r="15" fill="#FE7975"/>
<path d="M588.031 6.06502C587.407 5.37789 586.576 5 585.694 5C584.811 5 583.981 5.37727 583.357 6.06378L573.416 16.9311C573.357 16.9954 573.312 17.0727 573.284 17.158L571.034 23.9613C570.961 24.1809 571.008 24.4289 571.155 24.5989C571.263 24.7239 571.411 24.7913 571.563 24.7913C571.618 24.7913 571.673 24.7826 571.728 24.7641L577.324 22.8765C577.412 22.8474 577.492 22.7942 577.557 22.7231L588.031 11.2064C588.657 10.5205 589 9.60642 589 8.63541C589 7.66502 588.657 6.75153 588.031 6.06502ZM576.677 21.801L574.582 22.5085C574.46 22.1145 574.27 21.7657 574.011 21.4806C573.785 21.2338 573.524 21.0421 573.248 20.8862L574.207 17.988H575.5V19.225C575.5 19.567 575.752 19.8435 576.063 19.8435H577.056L576.677 21.801ZM584.957 12.8367L578.104 20.3723L578.301 19.3536C578.335 19.1706 578.294 18.9807 578.187 18.836C578.08 18.6906 577.92 18.6065 577.75 18.6065H576.625V17.3696C576.625 17.0282 576.373 16.7511 576.063 16.7511H575.175L581.865 9.43758L581.872 9.44438C582.284 8.99104 582.832 8.74179 583.414 8.74179C583.996 8.74179 584.545 8.99104 584.957 9.44438C585.368 9.89773 585.597 10.5001 585.597 11.1409C585.597 11.7816 585.37 12.3834 584.957 12.8367ZM587.235 10.3319L586.711 10.9089C586.66 10.0251 586.327 9.20132 585.753 8.56985C585.179 7.93777 584.429 7.57163 583.623 7.51659L584.151 6.94078L584.152 6.93955C584.562 6.4862 585.111 6.23696 585.694 6.23696C586.276 6.23696 586.824 6.4862 587.235 6.93955C587.648 7.39289 587.875 7.99529 587.875 8.63541C587.875 9.27677 587.649 9.87917 587.235 10.3319ZM583.54 10.129L577.915 16.3138C577.695 16.5556 577.695 16.9465 577.915 17.1883C578.024 17.3089 578.169 17.3696 578.313 17.3696C578.457 17.3696 578.6 17.3089 578.711 17.1883L584.336 11.0036C584.556 10.7617 584.556 10.3709 584.336 10.129C584.115 9.88721 583.76 9.88721 583.54 10.129Z" fill="white"/>
<defs>
<filter id="filter0_d" x="0.159058" y="38" width="856.841" height="139" filterUnits="userSpaceOnUse" color-interpolation-filters="sRGB">
<feFlood flood-opacity="0" result="BackgroundImageFix"/>
<feColorMatrix in="SourceAlpha" type="matrix" values="0 0 0 0 0 0 0 0 0 0 0 0 0 0 0 0 0 0 127 0"/>
<feOffset dx="20" dy="10"/>
<feGaussianBlur stdDeviation="1.5"/>
<feColorMatrix type="matrix" values="0 0 0 0 0.6 0 0 0 0 0.5525 0 0 0 0 0.5525 0 0 0 0.21 0"/>
<feBlend mode="normal" in2="BackgroundImageFix" result="effect1_dropShadow"/>
<feBlend mode="normal" in="SourceGraphic" in2="effect1_dropShadow" result="shape"/>
</filter>
<linearGradient id="paint0_linear" x1="399" y1="177" x2="399" y2="101" gradientUnits="userSpaceOnUse">
<stop stop-color="#A3CBF6"/>
<stop offset="1" stop-color="#779CC4"/>
</linearGradient>
</defs>
</svg>
