<svg width="109" height="116" viewBox="0 0 109 116" fill="none" xmlns="http://www.w3.org/2000/svg">
<rect x="1.41422" width="65.2128" height="65.2128" transform="matrix(0.707111 -0.707103 0.707111 0.707103 0.41421 55.8286)" stroke="#FE7975" stroke-width="2"/>
<g clip-path="url(#clip0)">
<path d="M2.87166 17.876C2.88736 17.2288 3.18638 16.6256 3.69207 16.2214C4.1976 15.8172 4.85138 15.6579 5.48648 15.785L11.6161 17.0109L12.3825 15.9739C13.5941 14.3345 15.7603 13.7158 17.6544 14.4663L22.0143 16.0915L26.2944 13.4508C26.7193 13.1889 27.2628 13.2228 27.6515 13.5356C28.0402 13.8485 28.1895 14.3724 28.0245 14.8432L25.82 21.1257C26.6392 25.6941 28.6307 32.3271 30.6558 33.3397C33.6147 34.819 48.015 37.3154 62.5473 36.0119C67.2327 35.5917 73.3131 39.3427 73.3131 39.3427C76.086 40.423 77.5894 43.4035 76.8103 46.2757L74.8289 53.5797C74.5881 55.8432 73.9081 58.2238 72.4104 60.277L71.7974 63.9545C71.5615 65.3706 70.7086 66.5866 69.4574 67.2906L66.0843 69.1886C65.9049 69.2896 65.7058 69.34 65.5066 69.34C65.3075 69.34 65.1084 69.2896 64.9292 69.1888L62.3563 67.7416C62.0409 67.5642 61.8245 67.2516 61.7696 66.8941C61.7144 66.5365 61.8269 66.1734 62.0744 65.9094L64.1857 63.6574L64.2737 61.3716C62.1215 61.7311 57.7787 62.3995 52.6237 62.8831C43.3867 63.75 35.7686 63.6742 29.9492 62.66C29.7033 63.9961 28.8271 65.1399 27.5989 65.7231L22.594 68.1005C22.4355 68.1757 22.2628 68.2145 22.0886 68.2145C22.035 68.2145 21.9812 68.2109 21.9276 68.2035L17.2643 67.5602C16.8932 67.509 16.5684 67.2843 16.3899 66.955C16.2113 66.6257 16.2 66.231 16.3596 65.892C17.319 63.8531 19.0056 62.2848 21.1088 61.4759L21.374 61.3738L20.6221 59.3999C13.8928 55.5088 9.87575 48.0521 10.3612 40.2721L11.0597 29.0758L5.47753 25.6406C3.77876 24.5952 2.75356 22.707 2.80225 20.7129L2.87166 17.876ZM72.458 41.5377L72.2551 41.4587C73.5221 43.2547 73.9667 44.7489 74.0361 45.003C74.0746 45.1298 74.2098 45.5912 74.3642 46.2955L74.5368 45.6592C75.0001 43.9516 74.1065 42.18 72.458 41.5377ZM6.71222 23.6344L10.3141 25.8509C11.8007 26.7653 13.5078 27.2024 15.251 27.1154L15.4369 27.1061C16.0835 27.0747 16.6396 27.5741 16.6721 28.2238C16.7046 28.8735 16.2041 29.4265 15.5544 29.459C15.5544 29.459 14.9986 29.4821 14.8141 29.4821C14.339 29.4821 13.8672 29.4502 13.4005 29.3896L12.7123 40.4189C12.3503 46.22 14.8156 51.8178 19.1598 55.5002C19.0642 54.9552 19.3642 54.4015 19.9005 54.1972C20.5082 53.9659 21.1889 54.2707 21.4205 54.8786L23.9934 61.6324C24.2244 62.239 23.9213 62.9182 23.3156 63.1511L21.9545 63.6745C20.9539 64.0593 20.0828 64.6797 19.4036 65.4774L21.9011 65.8218L26.5883 63.5955C27.1383 63.3342 27.5299 62.8202 27.6358 62.2204C28.0497 59.8748 27.8096 57.4626 26.9418 55.2447C26.7048 54.639 27.0037 53.9557 27.6094 53.7187C28.215 53.4819 28.8984 53.7806 29.1354 54.3863C29.8762 56.2791 30.2277 58.2918 30.1827 60.3081C39.8726 62.0356 53.2244 60.6032 60.3459 59.5909C59.1603 58.9102 58.0886 58.0214 57.176 56.9464C55.0838 54.4819 54.0908 51.3514 54.3804 48.1315C54.4387 47.4836 55.0123 47.0057 55.6589 47.0639C56.3067 47.1222 56.7848 47.6946 56.7265 48.3424C56.4941 50.9283 57.2914 53.4426 58.9718 55.422C60.6522 57.4014 63.0036 58.5962 65.5932 58.7867C65.599 58.7871 65.6042 58.789 65.6098 58.7898C65.8532 58.8111 66.0871 58.9063 66.276 59.0695C66.5475 59.3036 66.6975 59.6485 66.6839 60.0067L66.523 64.1877C66.5122 64.4712 66.3993 64.7411 66.2053 64.948L64.8205 66.4251L65.5066 66.8111L68.3022 65.2377C68.9287 64.8851 69.3557 64.2764 69.4738 63.5674L70.134 59.6067C70.1659 59.4153 70.2447 59.2345 70.3631 59.081C74.2728 54.013 71.8034 45.7573 71.7784 45.6758C71.7728 45.6578 71.7677 45.6397 71.763 45.6213C71.7531 45.5827 70.7198 41.7345 66.2532 39.1041C65.2221 38.4969 63.9921 38.2311 62.7894 38.355C48.1147 39.8727 33.1685 37.2297 29.6021 35.4464C27.8084 34.5496 26.2745 31.9129 24.9129 27.3857C24.5691 26.2425 24.2847 25.1354 24.0605 24.1815C23.4896 24.6404 22.8016 24.9549 22.0508 25.0751L19.8623 25.4251C19.7993 25.4352 19.7367 25.4401 19.6748 25.4401C19.1063 25.4401 18.6059 25.0275 18.5133 24.4482C18.4106 23.8058 18.848 23.2019 19.4903 23.099L21.6787 22.7489C22.3813 22.6365 22.964 22.1497 23.1995 21.4785L24.7 17.2023L19.9735 20.1186C19.4198 20.4602 18.6942 20.2882 18.3526 19.7346C18.0111 19.1811 18.1829 18.4554 18.7365 18.1138L19.4746 17.6584L16.8195 16.6687C16.8108 16.6654 16.8021 16.6621 16.7935 16.6586C15.89 16.2973 14.8552 16.5914 14.277 17.3738L14.0755 17.6463L14.6936 17.8229C15.319 18.0017 15.6813 18.6535 15.5026 19.2791C15.3548 19.7964 14.8832 20.1337 14.3706 20.1337C14.2635 20.1337 14.1545 20.1189 14.0464 20.088L5.2217 18.134L5.15731 20.77C5.12904 21.9293 5.72487 23.0268 6.71222 23.6344Z" fill="#CEE0F0"/>
</g>
<path d="M69.2312 12.8127L70.9056 14.4871L67.6925 17.7002C66.9383 17.5946 66.1916 17.3457 65.4524 16.9535C64.7132 16.5613 64.057 16.0786 63.4838 15.5053C62.6617 14.6832 62.096 13.7706 61.7867 12.7674C61.485 11.7568 61.4549 10.7536 61.6962 9.75802C61.9527 8.76242 62.4731 7.87241 63.2575 7.088C64.042 6.30358 64.9282 5.78693 65.9163 5.53803C66.9194 5.28913 67.9263 5.32307 68.937 5.63985C69.9553 5.94909 70.8792 6.51854 71.7089 7.34821C72.4028 8.04211 72.9157 8.78881 73.2476 9.58831C73.5795 10.3878 73.7152 11.2024 73.6549 12.0321L71.3921 11.9415C71.4223 10.78 71.0376 9.7995 70.2381 9C69.7328 8.49466 69.1784 8.15148 68.575 7.97046C67.9716 7.78944 67.3682 7.7819 66.7648 7.94783C66.1614 8.11377 65.6108 8.44563 65.113 8.94343C64.6227 9.43369 64.2946 9.98052 64.1287 10.5839C63.9628 11.1873 63.9628 11.7907 64.1287 12.3941C64.3097 12.9975 64.6491 13.5481 65.1469 14.0459C65.6749 14.5739 66.2632 14.9359 66.9119 15.132L69.2312 12.8127ZM71.2053 23.1362C70.5642 22.4951 70.1192 21.7861 69.8703 21.0093C69.6364 20.2324 69.6138 19.4631 69.8024 18.7013C69.9909 17.9395 70.3869 17.2569 70.9903 16.6535C71.5937 16.0501 72.2763 15.6541 73.0381 15.4656C73.7999 15.277 74.5655 15.3034 75.3348 15.5448C76.1192 15.7861 76.832 16.2274 77.4731 16.8685C78.1142 17.5096 78.5517 18.2186 78.7855 18.9954C79.0269 19.7648 79.0533 20.5303 78.8647 21.2921C78.6761 22.0539 78.2802 22.7365 77.6768 23.3399C77.0734 23.9433 76.3908 24.3392 75.629 24.5278C74.8672 24.7164 74.0978 24.6937 73.321 24.4599C72.5516 24.2186 71.8464 23.7773 71.2053 23.1362ZM72.6534 21.6881C73.106 22.1406 73.6264 22.3594 74.2147 22.3443C74.8181 22.3292 75.3763 22.0652 75.8892 21.5523C76.4021 21.0394 76.6623 20.4851 76.6698 19.8892C76.6925 19.2934 76.4775 18.7692 76.0249 18.3166C75.5724 17.8641 75.0444 17.6453 74.441 17.6604C73.8452 17.668 73.2908 17.9282 72.7779 18.4411C72.265 18.9539 72.001 19.5121 71.9859 20.1155C71.9784 20.7113 72.2009 21.2355 72.6534 21.6881ZM78.6189 30.5497C77.9778 29.9086 77.5328 29.1997 77.2839 28.4228C77.0501 27.6459 77.0274 26.8766 77.216 26.1148C77.4046 25.353 77.8005 24.6704 78.4039 24.067C79.0073 23.4636 79.6899 23.0677 80.4517 22.8791C81.2135 22.6905 81.9791 22.7169 82.7484 22.9583C83.5328 23.1997 84.2456 23.6409 84.8867 24.282C85.5278 24.9231 85.9653 25.6321 86.1991 26.409C86.4405 27.1783 86.4669 27.9438 86.2783 28.7056C86.0898 29.4674 85.6938 30.15 85.0904 30.7534C84.487 31.3568 83.8044 31.7528 83.0426 31.9413C82.2808 32.1299 81.5115 32.1073 80.7346 31.8734C79.9652 31.6321 79.26 31.1909 78.6189 30.5497ZM80.0671 29.1016C80.5196 29.5541 81.04 29.7729 81.6284 29.7578C82.2318 29.7427 82.7899 29.4787 83.3028 28.9658C83.8157 28.453 84.0759 27.8986 84.0835 27.3027C84.1061 26.7069 83.8911 26.1827 83.4386 25.7301C82.986 25.2776 82.458 25.0589 81.8546 25.0739C81.2588 25.0815 80.7044 25.3417 80.1915 25.8546C79.6786 26.3675 79.4146 26.9256 79.3995 27.529C79.392 28.1249 79.6145 28.6491 80.0671 29.1016ZM97.8215 32.7816L89.4266 41.1764L87.7409 39.4906L88.4423 38.7892C87.4769 38.8797 86.5793 38.5101 85.7497 37.6804C85.1764 37.1072 84.7842 36.4586 84.573 35.7345C84.3694 35.018 84.3732 34.2901 84.5844 33.551C84.7955 32.8118 85.2142 32.1292 85.8402 31.5032C86.4662 30.8772 87.1488 30.4586 87.888 30.2474C88.6271 30.0362 89.355 30.0324 90.0715 30.2361C90.7956 30.4472 91.4443 30.8395 92.0175 31.4127C92.7944 32.1895 93.1564 33.0418 93.1036 33.9696L96.0565 31.0167L97.8215 32.7816ZM87.5033 36.5378C87.9483 36.9828 88.4687 37.2015 89.0646 37.194C89.668 37.1789 90.2262 36.9149 90.739 36.402C91.2519 35.8891 91.5122 35.3347 91.5197 34.7389C91.5348 34.1355 91.3198 33.6113 90.8748 33.1663C90.4223 32.7137 89.8943 32.495 89.2909 32.5101C88.695 32.5176 88.1406 32.7779 87.6278 33.2907C87.1149 33.8036 86.8509 34.3618 86.8358 34.9652C86.8282 35.561 87.0508 36.0852 87.5033 36.5378Z" fill="#FE7975"/>
<path d="M61.2621 107.298C61.2168 107.6 61.0999 107.913 60.9114 108.237C60.7228 108.547 60.489 108.841 60.2099 109.12C59.4858 109.844 58.7391 110.221 57.9698 110.251C57.208 110.274 56.4688 109.927 55.7523 109.21L53.2519 106.71L52.3129 107.649L50.9552 106.291L51.8943 105.352L50.4122 103.87L52.1771 102.105L53.6592 103.587L55.1753 102.071L56.5329 103.429L55.0169 104.945L57.4946 107.423C57.751 107.679 58.015 107.815 58.2866 107.83C58.5581 107.83 58.8145 107.709 59.0559 107.468C59.335 107.189 59.4971 106.876 59.5424 106.529L61.2621 107.298ZM65.3007 97.8065C65.3234 97.8291 65.4705 97.9988 65.742 98.3156L61.1373 102.92C61.5974 103.214 62.0914 103.316 62.6194 103.226C63.1474 103.135 63.6414 102.86 64.1015 102.4C64.4183 102.083 64.6521 101.759 64.8029 101.427C64.9538 101.08 65.033 100.699 65.0405 100.284L66.9978 100.363C67.0808 101.593 66.5717 102.758 65.4705 103.859C64.7841 104.546 64.0449 105.021 63.253 105.285C62.4534 105.541 61.6728 105.575 60.911 105.387C60.1492 105.198 59.4666 104.802 58.8632 104.199C58.2674 103.603 57.8714 102.928 57.6753 102.174C57.4792 101.404 57.4942 100.642 57.7205 99.8882C57.9468 99.1189 58.3654 98.4287 58.9763 97.8178C59.5722 97.222 60.2397 96.8109 60.9789 96.5846C61.7181 96.3583 62.4648 96.3508 63.219 96.562C63.9733 96.7581 64.6672 97.1729 65.3007 97.8065ZM60.3227 99.1415C59.9229 99.5413 59.7004 99.99 59.6552 100.488C59.6099 100.986 59.7532 101.461 60.0851 101.913L63.0832 98.9152C62.6382 98.5909 62.1668 98.4514 61.669 98.4966C61.1637 98.5343 60.7149 98.7493 60.3227 99.1415ZM65.6086 91.1856C66.5514 90.2428 67.5018 89.745 68.4597 89.6922C69.41 89.6319 70.3378 90.0543 71.2429 90.9594L74.7162 94.4326L73.0644 96.0844L72.3064 95.3264C72.5402 96.224 72.2045 97.1253 71.2994 98.0304C70.8318 98.498 70.3453 98.8261 69.84 99.0147C69.3422 99.1957 68.8632 99.2372 68.4031 99.1391C67.943 99.0411 67.5357 98.8148 67.1812 98.4603C66.6155 97.8946 66.3817 97.2384 66.4798 96.4917C66.5854 95.7375 67.0832 94.9154 67.9732 94.0254L69.3761 92.6225C68.9914 92.2378 68.5804 92.0605 68.1429 92.0907C67.6979 92.1133 67.2416 92.3585 66.7739 92.8261C66.4496 93.1504 66.1818 93.5238 65.9706 93.9462C65.7595 94.3534 65.6312 94.7532 65.586 95.1454L63.7192 94.5458C63.8173 93.9801 64.0322 93.4031 64.3641 92.8148C64.7035 92.2189 65.1183 91.6759 65.6086 91.1856ZM70.5527 96.4012C70.8544 96.0995 71.0543 95.7639 71.1524 95.3943C71.2429 95.0172 71.2014 94.6438 71.0279 94.2743L70.4056 93.652L69.1951 94.8626C68.471 95.5866 68.3465 96.1863 68.8217 96.6614C69.048 96.8877 69.3158 96.982 69.625 96.9443C69.9342 96.8915 70.2435 96.7105 70.5527 96.4012ZM79.4119 89.918C78.7633 90.5666 78.0467 91.0192 77.2623 91.2756C76.4779 91.517 75.701 91.5471 74.9317 91.3661C74.1699 91.1776 73.4873 90.7816 72.8839 90.1782C72.2805 89.5748 71.8845 88.8922 71.6959 88.1304C71.5149 87.3611 71.5489 86.588 71.7978 85.8111C72.0467 85.0192 72.4955 84.2989 73.1441 83.6502C73.7852 83.0091 74.4791 82.5867 75.2258 82.3831C75.9726 82.1644 76.7042 82.1945 77.4207 82.4736L76.7871 84.5779C75.9122 84.3366 75.1768 84.5138 74.581 85.1097C74.1209 85.5698 73.8908 86.1015 73.8908 86.7049C73.8908 87.3083 74.151 87.8702 74.6715 88.3906C75.1919 88.9111 75.7538 89.1713 76.3572 89.1713C76.9606 89.1713 77.4924 88.9412 77.9525 88.4811C78.5559 87.8777 78.7331 87.1424 78.4842 86.275L80.5999 85.6527C80.8639 86.3542 80.8903 87.082 80.6791 87.8363C80.4754 88.583 80.0531 89.2769 79.4119 89.918ZM80.5423 76.2521C81.2966 75.4978 82.13 75.1169 83.0427 75.1094C83.9629 75.0943 84.868 75.5318 85.758 76.4218L89.2426 79.9064L87.4777 81.6713L84.2646 78.4582C83.7819 77.9755 83.318 77.7228 82.873 77.7002C82.4204 77.67 81.9943 77.8548 81.5945 78.2546C81.1495 78.6996 80.9346 79.1936 80.9496 79.7367C80.9572 80.2722 81.2325 80.8115 81.7755 81.3545L84.785 84.3639L83.0201 86.1289L74.6252 77.7341L76.3902 75.9692L79.3318 78.9108C79.3318 78.4431 79.4374 77.9831 79.6486 77.5305C79.8522 77.0704 80.1501 76.6443 80.5423 76.2521ZM93.8504 69.2572C93.873 69.2799 94.0201 69.4496 94.2916 69.7663L89.6869 74.371C90.147 74.6651 90.641 74.767 91.169 74.6765C91.697 74.586 92.191 74.3107 92.6511 73.8506C92.9679 73.5338 93.2017 73.2095 93.3525 72.8776C93.5034 72.5306 93.5826 72.1497 93.5901 71.7349L95.5474 71.8141C95.6304 73.0435 95.1213 74.2088 94.0201 75.31C93.3337 75.9964 92.5945 76.4716 91.8026 76.7355C91.0031 76.992 90.2224 77.0259 89.4606 76.8374C88.6988 76.6488 88.0162 76.2528 87.4128 75.6494C86.817 75.0536 86.421 74.3785 86.2249 73.6243C86.0288 72.855 86.0438 72.0932 86.2701 71.3389C86.4964 70.5696 86.915 69.8795 87.526 69.2685C88.1218 68.6727 88.7893 68.2616 89.5285 68.0354C90.2677 67.8091 91.0144 67.8015 91.7686 68.0127C92.5229 68.2088 93.2168 68.6237 93.8504 69.2572ZM88.8723 70.5922C88.4725 70.992 88.25 71.4408 88.2048 71.9386C88.1595 72.4364 88.3028 72.9115 88.6347 73.3641L91.6329 70.366C91.1878 70.0416 90.7164 69.9021 90.2186 69.9474C89.7133 69.9851 89.2645 70.2 88.8723 70.5922ZM94.4484 64.1337C94.3654 63.6284 94.4258 63.1231 94.6294 62.6177C94.8406 62.1048 95.18 61.6146 95.6477 61.1469L97.2768 62.7761C97.0656 62.9571 96.9261 63.0816 96.8582 63.1495C96.3529 63.6548 96.1002 64.1941 96.1002 64.7673C96.0927 65.333 96.3717 65.8987 96.9374 66.4643L99.8111 69.338L98.0462 71.1029L91.9594 65.0162L93.6451 63.3305L94.4484 64.1337Z" fill="#FE7975"/>
<defs>
<clipPath id="clip0">
<rect width="74.2146" height="74.2137" fill="white" transform="matrix(-1 0 0 1 77.0153 4.20068)"/>
</clipPath>
</defs>
</svg>
