<svg width="63" height="67" viewBox="0 0 63 67" fill="none" xmlns="http://www.w3.org/2000/svg">
<rect x="1.41471" width="36.8345" height="36.8345" transform="matrix(0.707353 -0.706861 0.707353 0.706861 0.41401 32.6682)" stroke="#FE7975" stroke-width="2"/>
<g clip-path="url(#clip0)">
<path d="M1.65968 10.3249C1.66875 9.95106 1.84158 9.60266 2.13386 9.36918C2.42604 9.1357 2.80392 9.04372 3.17099 9.1171L6.71382 9.82516L7.15678 9.22622C7.85707 8.27934 9.10906 7.92195 10.2038 8.35544L12.7238 9.29416L15.1976 7.76893C15.4432 7.61763 15.7573 7.63723 15.982 7.81791C16.2066 7.9986 16.2929 8.3012 16.1975 8.57314L14.9234 12.2019C15.3969 14.8405 16.5479 18.6716 17.7184 19.2565C19.4286 20.1109 27.7517 21.5528 36.1511 20.7999C38.8592 20.5572 42.3735 22.7237 42.3735 22.7237C43.9762 23.3477 44.8452 25.0692 44.3949 26.7281L43.2496 30.9468C43.1105 32.2542 42.7175 33.6292 41.8518 34.8151L41.4975 36.9392C41.3612 37.7571 40.8682 38.4594 40.145 38.866L38.1954 39.9623C38.0917 40.0206 37.9766 40.0498 37.8615 40.0498C37.7464 40.0498 37.6314 40.0206 37.5278 39.9624L36.0407 39.1265C35.8584 39.024 35.7334 38.8435 35.7016 38.637C35.6697 38.4305 35.7347 38.2208 35.8778 38.0683L37.0981 36.7675L37.1489 35.4473C35.905 35.6549 33.3949 36.041 30.4154 36.3204C25.0766 36.8211 20.6735 36.7772 17.31 36.1915C17.1679 36.9632 16.6615 37.6238 15.9516 37.9607L13.0588 39.3338C12.9672 39.3773 12.8674 39.3997 12.7667 39.3997C12.7358 39.3997 12.7046 39.3976 12.6737 39.3933L9.97836 39.0218C9.76387 38.9922 9.57616 38.8624 9.47295 38.6722C9.36975 38.482 9.36321 38.254 9.45543 38.0582C10.0099 36.8806 10.9848 35.9748 12.2004 35.5075L12.3537 35.4486L11.9191 34.3085C8.02971 32.0611 5.70791 27.7541 5.98848 23.2605L6.39223 16.7937L3.16582 14.8096C2.18396 14.2057 1.59142 13.1152 1.61956 11.9634L1.65968 10.3249ZM41.8793 23.9915L41.762 23.9459C42.4943 24.9832 42.7513 25.8463 42.7914 25.9931C42.8137 26.0663 42.8918 26.3328 42.981 26.7396L43.0808 26.372C43.3486 25.3858 42.8321 24.3625 41.8793 23.9915ZM3.87945 13.6508L5.96125 14.931C6.82048 15.4592 7.80715 15.7117 8.81469 15.6614L8.92216 15.656C9.29586 15.6379 9.61728 15.9264 9.63606 16.3016C9.65485 16.6769 9.36557 16.9962 8.99006 17.015C8.99006 17.015 8.66882 17.0283 8.56217 17.0283C8.28759 17.0283 8.01492 17.0099 7.74515 16.9749L7.3474 23.3453C7.13817 26.6959 8.56308 29.9292 11.0739 32.0561C11.0187 31.7413 11.192 31.4215 11.502 31.3035C11.8533 31.1699 12.2467 31.3459 12.3806 31.697L13.8677 35.598C14.0012 35.9483 13.826 36.3406 13.4759 36.4751L12.6892 36.7774C12.1109 36.9997 11.6074 37.358 11.2148 37.8187L12.6583 38.0177L15.3674 36.7318C15.6853 36.5809 15.9117 36.284 15.9729 35.9376C16.2121 34.5828 16.0734 33.1895 15.5718 31.9085C15.4348 31.5586 15.6075 31.164 15.9576 31.0271C16.3076 30.8903 16.7027 31.0628 16.8396 31.4127C17.2678 32.506 17.4709 33.6685 17.445 34.833C23.0456 35.8308 30.7626 35.0035 34.8788 34.4188C34.1934 34.0257 33.574 33.5123 33.0466 32.8914C31.8373 31.4679 31.2634 29.6598 31.4308 27.8C31.4645 27.4258 31.796 27.1497 32.1697 27.1834C32.5442 27.217 32.8205 27.5477 32.7868 27.9218C32.6525 29.4154 33.1133 30.8676 34.0845 32.0109C35.0558 33.1542 36.4149 33.8443 37.9116 33.9543C37.9149 33.9545 37.9179 33.9556 37.9212 33.9561C38.0619 33.9684 38.197 34.0234 38.3062 34.1176C38.4632 34.2529 38.5498 34.4521 38.542 34.659L38.449 37.0739C38.4427 37.2376 38.3775 37.3935 38.2654 37.513L37.465 38.3662L37.8615 38.5891L39.4773 37.6803C39.8394 37.4767 40.0862 37.1251 40.1545 36.7156L40.5361 34.4279C40.5545 34.3174 40.6001 34.213 40.6685 34.1243C42.9282 31.1971 41.501 26.4287 41.4865 26.3816C41.4833 26.3712 41.4803 26.3608 41.4776 26.3502C41.4719 26.3279 40.8746 24.1052 38.2931 22.5859C37.6971 22.2352 36.9862 22.0817 36.291 22.1533C27.8093 23.0299 19.1707 21.5033 17.1094 20.4733C16.0726 19.9553 15.1861 18.4324 14.3991 15.8175C14.2004 15.1573 14.036 14.5178 13.9064 13.9668C13.5765 14.2319 13.1788 14.4136 12.7448 14.4829L11.48 14.6851C11.4436 14.6909 11.4073 14.6937 11.3716 14.6937C11.043 14.6937 10.7538 14.4555 10.7002 14.1208C10.6409 13.7499 10.8937 13.401 11.2649 13.3416L12.5298 13.1394C12.9359 13.0744 13.2727 12.7933 13.4088 12.4056L14.276 9.93573L11.5442 11.6202C11.2242 11.8174 10.8048 11.7181 10.6074 11.3984C10.41 11.0786 10.5093 10.6595 10.8292 10.4622L11.2559 10.1991L9.7213 9.62751C9.71622 9.62561 9.71122 9.6237 9.70623 9.6217C9.18403 9.41299 8.58595 9.58288 8.25174 10.0348L8.13528 10.1922L8.49255 10.2942C8.85399 10.3974 9.0634 10.7739 8.9601 11.1352C8.87469 11.434 8.60211 11.6289 8.30583 11.6289C8.24393 11.6289 8.18094 11.6203 8.11849 11.6025L3.01796 10.4739L2.98074 11.9964C2.9644 12.666 3.30878 13.2999 3.87945 13.6508Z" fill="#26405C"/>
</g>
<path d="M39.62 7.60229L40.5622 8.54382L38.7542 10.3506C38.3298 10.2912 37.9096 10.1512 37.4937 9.93068C37.0777 9.71014 36.7085 9.43871 36.386 9.11638C35.9233 8.65409 35.605 8.14091 35.431 7.57684C35.2613 7.00852 35.2443 6.44445 35.3801 5.88461C35.5244 5.32478 35.8172 4.82432 36.2586 4.38324C36.7 3.94216 37.1987 3.65164 37.7547 3.51168C38.3191 3.37172 38.8857 3.39081 39.4544 3.56894C40.0274 3.74283 40.5473 4.06303 41.0142 4.52956C41.4046 4.91975 41.6932 5.33962 41.88 5.78919C42.0667 6.23875 42.1431 6.6968 42.1091 7.16332L40.8359 7.11243C40.8529 6.45929 40.6364 5.90794 40.1866 5.45838C39.9022 5.17422 39.5903 4.98125 39.2507 4.87946C38.9112 4.77767 38.5717 4.77343 38.2321 4.86673C37.8926 4.96004 37.5828 5.14665 37.3027 5.42657C37.0268 5.70224 36.8422 6.00973 36.7488 6.34902C36.6555 6.68831 36.6555 7.02761 36.7488 7.3669C36.8507 7.70619 37.0417 8.0158 37.3218 8.29572C37.6189 8.5926 37.9499 8.79617 38.3149 8.90644L39.62 7.60229ZM40.7308 13.4073C40.37 13.0468 40.1196 12.6481 39.9796 12.2113C39.848 11.7744 39.8353 11.3418 39.9414 10.9135C40.0475 10.4851 40.2703 10.1013 40.6098 9.762C40.9493 9.4227 41.3334 9.20004 41.7621 9.09401C42.1907 8.98799 42.6215 9.00283 43.0544 9.13855C43.4958 9.27426 43.8969 9.52237 44.2576 9.88287C44.6184 10.2434 44.8645 10.642 44.9961 11.0789C45.1319 11.5115 45.1468 11.942 45.0407 12.3703C44.9346 12.7987 44.7117 13.1825 44.3722 13.5218C44.0327 13.8611 43.6486 14.0837 43.2199 14.1898C42.7913 14.2958 42.3584 14.2831 41.9212 14.1516C41.4883 14.0159 41.0915 13.7678 40.7308 13.4073ZM41.5456 12.593C41.8003 12.8474 42.0931 12.9704 42.4242 12.962C42.7637 12.9535 43.0778 12.805 43.3664 12.5166C43.655 12.2282 43.8014 11.9165 43.8056 11.5815C43.8184 11.2464 43.6974 10.9516 43.4428 10.6972C43.1881 10.4427 42.891 10.3197 42.5515 10.3282C42.2162 10.3324 41.9043 10.4788 41.6157 10.7672C41.3271 11.0556 41.1785 11.3694 41.17 11.7087C41.1658 12.0437 41.291 12.3385 41.5456 12.593ZM44.9024 17.576C44.5416 17.2155 44.2912 16.8168 44.1511 16.38C44.0196 15.9431 44.0068 15.5105 44.1129 15.0822C44.2191 14.6538 44.4419 14.27 44.7814 13.9307C45.1209 13.5914 45.505 13.3687 45.9337 13.2627C46.3623 13.1567 46.7931 13.1715 47.226 13.3072C47.6674 13.4429 48.0685 13.6911 48.4292 14.0516C48.79 14.4121 49.0361 14.8107 49.1677 15.2476C49.3035 15.6802 49.3184 16.1106 49.2123 16.539C49.1062 16.9674 48.8833 17.3512 48.5438 17.6905C48.2043 18.0298 47.8202 18.2524 47.3915 18.3585C46.9629 18.4645 46.53 18.4518 46.0928 18.3203C45.6599 18.1846 45.2631 17.9365 44.9024 17.576ZM45.7172 16.7617C45.9719 17.0161 46.2647 17.1391 46.5958 17.1306C46.9353 17.1222 47.2494 16.9737 47.538 16.6853C47.8266 16.3969 47.973 16.0852 47.9772 15.7501C47.9899 15.4151 47.869 15.1203 47.6143 14.8659C47.3597 14.6114 47.0626 14.4884 46.7231 14.4969C46.3878 14.5011 46.0759 14.6474 45.7873 14.9358C45.4987 15.2242 45.3501 15.5381 45.3416 15.8774C45.3374 16.2124 45.4626 16.5072 45.7172 16.7617ZM55.7075 18.831L50.9838 23.5514L50.0352 22.6035L50.4299 22.2091C49.8867 22.2599 49.3816 22.0521 48.9148 21.5856C48.5922 21.2633 48.3715 20.8985 48.2527 20.4914C48.1381 20.0885 48.1402 19.6792 48.2591 19.2636C48.3779 18.8479 48.6135 18.4641 48.9657 18.1121C49.318 17.7601 49.7021 17.5247 50.118 17.4059C50.5339 17.2872 50.9435 17.2851 51.3467 17.3996C51.7541 17.5183 52.1191 17.7389 52.4416 18.0612C52.8788 18.498 53.0825 18.9773 53.0528 19.4989L54.7144 17.8385L55.7075 18.831ZM49.9015 20.9431C50.1519 21.1933 50.4448 21.3163 50.7801 21.312C51.1196 21.3036 51.4337 21.1551 51.7223 20.8667C52.0109 20.5783 52.1573 20.2666 52.1615 19.9315C52.17 19.5923 52.0491 19.2975 51.7987 19.0473C51.544 18.7928 51.2469 18.6698 50.9074 18.6783C50.5721 18.6825 50.2602 18.8288 49.9716 19.1172C49.683 19.4056 49.5344 19.7195 49.5259 20.0588C49.5217 20.3938 49.6469 20.6886 49.9015 20.9431Z" fill="#FE7975"/>
<path d="M35.5761 62.2865C35.5506 62.4562 35.4848 62.6322 35.3787 62.8145C35.2726 62.9884 35.1411 63.1538 34.984 63.3107C34.5766 63.7179 34.1564 63.93 33.7235 63.9469C33.2949 63.9596 32.879 63.7646 32.4758 63.3616L31.0688 61.9557L30.5404 62.4837L29.7765 61.7203L30.3049 61.1923L29.4709 60.3589L30.4641 59.3665L31.298 60.1999L32.1511 59.3474L32.915 60.1108L32.062 60.9633L33.4562 62.3565C33.6005 62.5007 33.749 62.577 33.9018 62.5855C34.0546 62.5855 34.1989 62.5176 34.3347 62.3819C34.4917 62.225 34.583 62.049 34.6084 61.8539L35.5761 62.2865ZM37.8486 56.9492C37.8613 56.9619 37.9441 57.0574 38.0969 57.2355L35.5059 59.8247C35.7648 59.9901 36.0427 60.0474 36.3398 59.9965C36.6369 59.9456 36.9149 59.7908 37.1738 59.5321C37.3521 59.3539 37.4836 59.1716 37.5685 58.985C37.6534 58.7899 37.698 58.5757 37.7022 58.3424L38.8035 58.387C38.8502 59.0783 38.5638 59.7335 37.9441 60.3527C37.5579 60.7387 37.142 61.0059 36.6963 61.1543C36.2465 61.2985 35.8072 61.3176 35.3785 61.2116C34.9499 61.1055 34.5658 60.8829 34.2263 60.5436C33.891 60.2085 33.6682 59.829 33.5578 59.4048C33.4475 58.9722 33.456 58.5439 33.5833 58.1198C33.7106 57.6872 33.9462 57.2991 34.2899 56.9556C34.6252 56.6205 35.0008 56.3894 35.4167 56.2621C35.8327 56.1349 36.2528 56.1307 36.6772 56.2494C37.1017 56.3597 37.4921 56.5929 37.8486 56.9492ZM35.0475 57.6999C34.8226 57.9247 34.6974 58.177 34.6719 58.4569C34.6464 58.7369 34.7271 59.004 34.9138 59.2585L36.6008 57.5727C36.3504 57.3903 36.0852 57.3118 35.8051 57.3373C35.5207 57.3585 35.2682 57.4793 35.0475 57.6999ZM38.0218 53.2262C38.5524 52.6961 39.0871 52.4162 39.6261 52.3865C40.1609 52.3526 40.6829 52.5901 41.1922 53.099L43.1466 55.0521L42.2172 55.9809L41.7906 55.5546C41.9222 56.0593 41.7333 56.5662 41.224 57.0751C40.9609 57.338 40.6872 57.5225 40.4028 57.6286C40.1227 57.7304 39.8532 57.7537 39.5943 57.6985C39.3354 57.6434 39.1062 57.5162 38.9067 57.3168C38.5884 56.9988 38.4569 56.6298 38.512 56.2099C38.5715 55.7858 38.8516 55.3235 39.3524 54.823L40.1418 54.0342C39.9253 53.8179 39.694 53.7182 39.4479 53.7352C39.1975 53.7479 38.9407 53.8857 38.6776 54.1487C38.4951 54.3311 38.3444 54.541 38.2256 54.7785C38.1067 55.0075 38.0346 55.2323 38.0091 55.4528L36.9587 55.1157C37.0139 54.7976 37.1348 54.4731 37.3216 54.1423C37.5126 53.8073 37.746 53.5019 38.0218 53.2262ZM40.8039 56.159C40.9736 55.9894 41.0861 55.8006 41.1413 55.5928C41.1922 55.3807 41.1689 55.1708 41.0712 54.963L40.7211 54.6131L40.0399 55.2938C39.6325 55.701 39.5625 56.0381 39.8298 56.3053C39.9572 56.4326 40.1078 56.4856 40.2818 56.4644C40.4558 56.4347 40.6299 56.3329 40.8039 56.159ZM45.7889 52.5134C45.4239 52.8782 45.0207 53.1326 44.5793 53.2768C44.1379 53.4126 43.7008 53.4295 43.2679 53.3277C42.8392 53.2217 42.4551 52.999 42.1156 52.6597C41.7761 52.3205 41.5533 51.9366 41.4471 51.5083C41.3453 51.0757 41.3644 50.641 41.5044 50.2041C41.6445 49.7588 41.897 49.3538 42.262 48.989C42.6228 48.6285 43.0132 48.391 43.4334 48.2765C43.8536 48.1535 44.2652 48.1705 44.6684 48.3274L44.3119 49.5107C43.8196 49.375 43.4058 49.4746 43.0705 49.8097C42.8116 50.0684 42.6822 50.3674 42.6822 50.7067C42.6822 51.046 42.8286 51.3619 43.1215 51.6546C43.4143 51.9472 43.7305 52.0935 44.07 52.0935C44.4095 52.0935 44.7088 51.9642 44.9676 51.7055C45.3072 51.3662 45.4069 50.9527 45.2669 50.4649L46.4573 50.115C46.6059 50.5095 46.6207 50.9187 46.5019 51.3429C46.3873 51.7627 46.1496 52.1529 45.7889 52.5134ZM46.4249 44.829C46.8494 44.4049 47.3183 44.1907 47.8319 44.1864C48.3497 44.178 48.859 44.424 49.3598 44.9244L51.3205 46.8838L50.3274 47.8763L48.5194 46.0695C48.2478 45.7981 47.9868 45.656 47.7364 45.6433C47.4817 45.6263 47.2419 45.7302 47.017 45.955C46.7666 46.2052 46.6456 46.483 46.6541 46.7884C46.6584 47.0895 46.8133 47.3928 47.1189 47.6981L48.8123 49.3904L47.8191 50.3828L43.0954 45.6624L44.0886 44.6699L45.7438 46.324C45.7438 46.061 45.8032 45.8023 45.922 45.5479C46.0366 45.2891 46.2043 45.0495 46.4249 44.829ZM53.9133 40.8957C53.926 40.9085 54.0088 41.0039 54.1615 41.182L51.5705 43.7712C51.8294 43.9366 52.1074 43.9939 52.4045 43.943C52.7016 43.8921 52.9796 43.7373 53.2384 43.4786C53.4167 43.3005 53.5483 43.1181 53.6332 42.9315C53.718 42.7364 53.7626 42.5222 53.7668 42.289L54.8682 42.3335C54.9149 43.0248 54.6284 43.6801 54.0088 44.2993C53.6225 44.6852 53.2066 44.9524 52.761 45.1008C52.3111 45.245 51.8718 45.2641 51.4432 45.1581C51.0145 45.0521 50.6304 44.8294 50.2909 44.4901C49.9556 44.1551 49.7328 43.7755 49.6225 43.3514C49.5121 42.9188 49.5206 42.4904 49.6479 42.0663C49.7752 41.6337 50.0108 41.2456 50.3546 40.9021C50.6899 40.567 51.0655 40.3359 51.4814 40.2087C51.8973 40.0814 52.3175 40.0772 52.7419 40.1959C53.1663 40.3062 53.5568 40.5395 53.9133 40.8957ZM51.1121 41.6464C50.8872 41.8712 50.762 42.1236 50.7365 42.4035C50.7111 42.6834 50.7917 42.9506 50.9785 43.205L52.6655 41.5192C52.4151 41.3368 52.1498 41.2584 51.8697 41.2838C51.5854 41.305 51.3328 41.4259 51.1121 41.6464ZM54.2498 38.0148C54.2031 37.7306 54.237 37.4464 54.3516 37.1623C54.4705 36.8739 54.6615 36.5982 54.9246 36.3353L55.8413 37.2513C55.7225 37.3531 55.644 37.4231 55.6058 37.4613C55.3214 37.7454 55.1792 38.0487 55.1792 38.371C55.175 38.6891 55.332 39.0072 55.6503 39.3253L57.2673 40.9412L56.2742 41.9336L52.8492 38.511L53.7978 37.5631L54.2498 38.0148Z" fill="#FE7975"/>
<defs>
<clipPath id="clip0">
<rect width="42.8947" height="42.8648" fill="white" transform="matrix(-1 0 0 1 44.5134 2.42632)"/>
</clipPath>
</defs>
</svg>
