<svg width="375" height="175" viewBox="0 0 375 175" fill="none" xmlns="http://www.w3.org/2000/svg">
<g filter="url(#filter0_d)">
<path d="M0 161C5 145 21 92.3636 60 90C99 87.6364 100 161 155 161C210 161 214 37 267 37C320 37 308 132 372 132" stroke="black" stroke-width="2"/>
<path d="M0 161C5 145 21 92.3636 60 90C99 87.6364 100 161 155 161C210 161 214 37 267 37C320 37 308 132 372 132" stroke="url(#paint0_linear)" stroke-width="2"/>
</g>
<circle r="7" transform="matrix(1 0 0 -1 271 37)" fill="#FE7975"/>
<circle r="4.84615" transform="matrix(1 0 0 -1 271 37)" fill="white"/>
<circle cx="305" cy="15" r="15" fill="#FE7975"/>
<path d="M313.031 6.06502C312.407 5.37789 311.576 5 310.694 5C309.811 5 308.981 5.37727 308.357 6.06378L298.416 16.9311C298.357 16.9954 298.312 17.0727 298.284 17.158L296.034 23.9613C295.961 24.1809 296.008 24.4289 296.155 24.5989C296.263 24.7239 296.411 24.7913 296.563 24.7913C296.618 24.7913 296.673 24.7826 296.728 24.7641L302.324 22.8765C302.412 22.8474 302.492 22.7942 302.557 22.7231L313.031 11.2064C313.657 10.5205 314 9.60642 314 8.63541C314 7.66502 313.657 6.75153 313.031 6.06502ZM301.677 21.801L299.582 22.5085C299.46 22.1145 299.27 21.7657 299.011 21.4806C298.785 21.2338 298.524 21.0421 298.248 20.8862L299.207 17.988H300.5V19.225C300.5 19.567 300.752 19.8435 301.063 19.8435H302.056L301.677 21.801ZM309.957 12.8367L303.104 20.3723L303.301 19.3536C303.335 19.1706 303.294 18.9807 303.187 18.836C303.08 18.6906 302.92 18.6065 302.75 18.6065H301.625V17.3696C301.625 17.0282 301.373 16.7511 301.063 16.7511H300.175L306.865 9.43758L306.872 9.44438C307.284 8.99104 307.832 8.74179 308.414 8.74179C308.996 8.74179 309.545 8.99104 309.957 9.44438C310.368 9.89773 310.597 10.5001 310.597 11.1409C310.597 11.7816 310.37 12.3834 309.957 12.8367ZM312.235 10.3319L311.711 10.9089C311.66 10.0251 311.327 9.20132 310.753 8.56985C310.179 7.93777 309.429 7.57163 308.623 7.51659L309.151 6.94078L309.152 6.93955C309.562 6.4862 310.111 6.23696 310.694 6.23696C311.276 6.23696 311.824 6.4862 312.235 6.93955C312.648 7.39289 312.875 7.99529 312.875 8.63541C312.875 9.27677 312.649 9.87917 312.235 10.3319ZM308.54 10.129L302.915 16.3138C302.695 16.5556 302.695 16.9465 302.915 17.1883C303.024 17.3089 303.169 17.3696 303.313 17.3696C303.457 17.3696 303.6 17.3089 303.711 17.1883L309.336 11.0036C309.556 10.7617 309.556 10.3709 309.336 10.129C309.115 9.88721 308.76 9.88721 308.54 10.129Z" fill="white"/>
<defs>
<filter id="filter0_d" x="-0.954483" y="36" width="395.954" height="139" filterUnits="userSpaceOnUse" color-interpolation-filters="sRGB">
<feFlood flood-opacity="0" result="BackgroundImageFix"/>
<feColorMatrix in="SourceAlpha" type="matrix" values="0 0 0 0 0 0 0 0 0 0 0 0 0 0 0 0 0 0 127 0"/>
<feOffset dx="20" dy="10"/>
<feGaussianBlur stdDeviation="1.5"/>
<feColorMatrix type="matrix" values="0 0 0 0 0.6 0 0 0 0 0.5525 0 0 0 0 0.5525 0 0 0 0.21 0"/>
<feBlend mode="normal" in2="BackgroundImageFix" result="effect1_dropShadow"/>
<feBlend mode="normal" in="SourceGraphic" in2="effect1_dropShadow" result="shape"/>
</filter>
<linearGradient id="paint0_linear" x1="186" y1="175" x2="186" y2="99" gradientUnits="userSpaceOnUse">
<stop stop-color="#47607A"/>
<stop offset="1" stop-color="#5A7B9F"/>
</linearGradient>
</defs>
</svg>
