<svg width="335" height="172" viewBox="0 0 335 172" fill="none" xmlns="http://www.w3.org/2000/svg">
<path d="M0 170.001C15 170.001 16 69.0011 30 69.5011C44 70.0011 38 170.001 56.5 170.001C75 170.001 63 38.5011 84 38.5011C105 38.5011 91.5 170.001 110 170.001C128.5 170.001 123.5 105.501 140 105.001C156.5 104.501 153.5 170.001 168 170.001C182.5 170.001 179 81.5011 195 81.5011C211 81.5011 202.5 170.001 223 170.001C243.5 170.001 229 1.50111 251 2.00111C273 2.50111 259 170.001 279 170.001C299 170.001 292 132.501 307 132.501C322 132.501 314.5 170.001 335 170.001" stroke="url(#paint0_linear)" stroke-width="3"/>
<defs>
<linearGradient id="paint0_linear" x1="167.5" y1="2" x2="168" y2="242.001" gradientUnits="userSpaceOnUse">
<stop offset="0.207443" stop-color="#5FCFA9"/>
<stop offset="1" stop-color="#CEE0F0" stop-opacity="0"/>
</linearGradient>
</defs>
</svg>
