<svg width="342" height="178" fill="none" xmlns="http://www.w3.org/2000/svg"><path d="M0 176.001c15 0 16-101 30-100.5s8 100.5 26.5 100.5S63 44.501 84 44.501s7.5 131.5 26 131.5 13.5-64.5 30-65 13.5 65 28 65 11-88.5 27-88.5 7.5 88.5 28 88.5 6-168.5 28-168 8 168 28 168 13-37.5 28-37.5 7.5 37.5 28 37.5" stroke="url(#paint0_linear)" stroke-width="3"/><path d="M7 170.001c15 0 16-101 30-100.5s8 100.5 26.5 100.5S70 38.501 91 38.501s7.5 131.5 26 131.5 13.5-64.5 30-65 13.5 65 28 65 11-88.5 27-88.5 7.5 88.5 28 88.5 6-168.5 28-168 8 168 28 168 13-37.5 28-37.5 7.5 37.5 28 37.5" stroke="url(#paint1_linear)" stroke-opacity=".07" stroke-width="3"/><defs><linearGradient id="paint0_linear" x1="167.5" y1="8" x2="168" y2="248.001" gradientUnits="userSpaceOnUse"><stop offset=".207" stop-color="#5FCFA9"/><stop offset="1" stop-color="#CEE0F0" stop-opacity="0"/></linearGradient><linearGradient id="paint1_linear" x1="174.5" y1="2" x2="175" y2="242.001" gradientUnits="userSpaceOnUse"><stop offset=".207" stop-color="#5FCFA9"/><stop offset="1" stop-color="#CEE0F0" stop-opacity="0"/></linearGradient></defs></svg>