<svg width="63" height="67" fill="none" xmlns="http://www.w3.org/2000/svg"><path stroke="#FE7975" stroke-width="2" d="M1.415 31.668L27.47 5.63l26.036 26.055-26.055 26.036z"/><g clip-path="url(#clip0)"><path d="M1.66 10.325a1.261 1.261 0 0 1 1.51-1.208l3.543.708.443-.599a2.6 2.6 0 0 1 3.047-.87l2.52.938 2.474-1.525a.681.681 0 0 1 1 .804l-1.275 3.629c.474 2.639 1.625 6.47 2.795 7.054 1.71.855 10.034 2.297 18.433 1.544 2.708-.243 6.222 1.924 6.222 1.924a3.348 3.348 0 0 1 2.022 4.004l-1.145 4.219c-.14 1.307-.532 2.682-1.398 3.868l-.354 2.124a2.712 2.712 0 0 1-1.353 1.927l-1.95 1.096a.681.681 0 0 1-.667 0l-1.487-.836a.68.68 0 0 1-.163-1.058l1.22-1.3.05-1.32a97.455 97.455 0 0 1-6.733.872c-5.338.501-9.741.457-13.105-.129a2.453 2.453 0 0 1-1.358 1.77l-2.893 1.373a.68.68 0 0 1-.385.06l-2.696-.372a.68.68 0 0 1-.523-.964 5.005 5.005 0 0 1 2.745-2.55l.154-.06-.435-1.14c-3.89-2.247-6.211-6.554-5.93-11.047l.403-6.467-3.226-1.984a3.26 3.26 0 0 1-1.546-2.847l.04-1.638zM41.88 23.99l-.118-.045c.732 1.037.99 1.9 1.03 2.047.022.073.1.34.189.747l.1-.368a1.99 1.99 0 0 0-1.202-2.38zm-38-10.34l2.081 1.28a4.96 4.96 0 0 0 2.854.73l.107-.005a.68.68 0 0 1 .068 1.359s-.321.013-.428.013c-.274 0-.547-.018-.817-.053l-.398 6.37c-.209 3.35 1.216 6.584 3.727 8.711a.68.68 0 0 1 1.307-.359l1.487 3.901a.68.68 0 0 1-.392.877l-.787.302a3.654 3.654 0 0 0-1.474 1.042l1.443.199 2.71-1.286a1.09 1.09 0 0 0 .605-.794 7.48 7.48 0 0 0-.401-4.03.68.68 0 1 1 1.268-.495 8.837 8.837 0 0 1 .605 3.42c5.6.998 13.318.17 17.434-.414a6.92 6.92 0 0 1-1.832-1.528 6.857 6.857 0 0 1-1.617-5.09.68.68 0 0 1 1.356.122 5.508 5.508 0 0 0 1.297 4.089 5.515 5.515 0 0 0 3.828 1.943l.01.002a.679.679 0 0 1 .62.703l-.093 2.415a.68.68 0 0 1-.184.439l-.8.853.396.223 1.616-.909c.362-.203.61-.555.678-.964l.381-2.288a.68.68 0 0 1 .133-.304c2.26-2.927.832-7.695.818-7.742a.663.663 0 0 1-.01-.032c-.005-.022-.602-2.245-3.184-3.764a3.306 3.306 0 0 0-2.002-.433c-8.482.877-17.12-.65-19.182-1.68-1.036-.518-1.923-2.04-2.71-4.655-.199-.66-.363-1.3-.493-1.851-.33.265-.727.447-1.161.516l-1.265.202a.68.68 0 0 1-.215-1.344l1.265-.202c.406-.065.743-.346.879-.733l.867-2.47-2.732 1.684a.681.681 0 0 1-.715-1.158l.427-.263-1.535-.571a1.238 1.238 0 0 0-1.47.407l-.116.157.358.102a.68.68 0 1 1-.375 1.308l-5.1-1.128-.037 1.522c-.017.67.328 1.304.898 1.655z" fill="#26405C"/></g><path d="M39.62 7.602l.942.942-1.808 1.807a3.81 3.81 0 0 1-1.26-.42 4.611 4.611 0 0 1-1.108-.815c-.463-.462-.781-.975-.955-1.54a3.188 3.188 0 0 1-.05-1.691c.143-.56.436-1.06.878-1.502.441-.44.94-.731 1.496-.871a3.093 3.093 0 0 1 1.7.057c.572.174 1.092.494 1.56.96.39.39.678.81.865 1.26.187.45.263.908.23 1.374l-1.274-.05c.017-.654-.2-1.205-.65-1.655a2.224 2.224 0 0 0-.935-.579 1.81 1.81 0 0 0-1.019-.012c-.34.093-.65.28-.93.56-.275.275-.46.583-.553.922-.093.34-.093.679 0 1.018.102.34.293.649.573.929.297.297.628.5.993.61l1.305-1.304zm1.11 5.805c-.36-.36-.61-.759-.75-1.196a2.412 2.412 0 0 1-.039-1.297c.106-.429.33-.813.669-1.152.34-.34.723-.562 1.152-.668a2.35 2.35 0 0 1 1.292.045c.442.135.843.383 1.204.744.36.36.606.759.738 1.196.136.432.15.863.045 1.291a2.442 2.442 0 0 1-.669 1.152c-.34.34-.723.562-1.152.668a2.417 2.417 0 0 1-1.299-.038 2.91 2.91 0 0 1-1.19-.745zm.816-.814c.254.254.547.377.878.369.34-.008.654-.157.942-.445.289-.289.435-.6.44-.935a1.147 1.147 0 0 0-.363-.885 1.178 1.178 0 0 0-.892-.369c-.335.004-.647.15-.935.44-.289.288-.438.601-.446.94-.004.336.121.63.376.885zm3.356 4.983a2.97 2.97 0 0 1-.75-1.196 2.413 2.413 0 0 1-.04-1.298c.107-.428.33-.812.67-1.151.339-.34.723-.562 1.152-.668a2.36 2.36 0 0 1 1.292.044c.441.136.843.384 1.203.745.361.36.607.759.739 1.196.136.432.15.863.044 1.291a2.442 2.442 0 0 1-.668 1.151c-.34.34-.724.562-1.152.668a2.417 2.417 0 0 1-1.3-.038 2.91 2.91 0 0 1-1.19-.744zm.815-.814c.255.254.548.377.879.369.34-.009.653-.157.942-.446.289-.288.435-.6.44-.935a1.147 1.147 0 0 0-.364-.884 1.177 1.177 0 0 0-.89-.37c-.336.005-.648.151-.937.44-.288.288-.437.602-.445.941-.005.335.12.63.375.885zm9.99 2.069l-4.723 4.72-.949-.947.395-.395c-.543.05-1.048-.157-1.515-.623a2.538 2.538 0 0 1-.662-1.095 2.196 2.196 0 0 1 .006-1.227c.119-.416.355-.8.707-1.152.352-.352.736-.587 1.152-.706.416-.119.825-.12 1.229-.006a2.54 2.54 0 0 1 1.095.661c.437.437.64.916.61 1.438l1.662-1.66.994.992zm-5.806 2.112c.25.25.544.373.88.369.339-.008.653-.157.941-.445.289-.289.435-.6.44-.936a1.165 1.165 0 0 0-.363-.884 1.178 1.178 0 0 0-.892-.369c-.335.005-.647.15-.935.44-.289.288-.438.602-.446.94-.004.336.12.63.375.885zM35.576 62.286a1.5 1.5 0 0 1-.197.529 2.696 2.696 0 0 1-.395.496c-.407.407-.828.619-1.26.636-.43.013-.845-.182-1.248-.585l-1.407-1.406-.529.528-.764-.764.529-.528-.834-.833.993-.992.834.833.853-.853.764.764-.853.852 1.394 1.393c.144.145.293.221.446.23.153 0 .297-.068.433-.204a.901.901 0 0 0 .273-.528l.968.432zm2.273-5.337c.012.013.095.108.248.287l-2.591 2.589c.259.165.537.222.834.171.297-.05.575-.205.834-.464.178-.178.31-.36.395-.547.084-.195.129-.41.133-.643l1.102.045c.046.691-.24 1.346-.86 1.966-.386.386-.802.653-1.248.801-.45.144-.889.164-1.317.058a2.444 2.444 0 0 1-1.153-.668 2.475 2.475 0 0 1-.668-1.14 2.36 2.36 0 0 1 .025-1.284 2.72 2.72 0 0 1 .707-1.164c.335-.336.71-.567 1.127-.694a2.2 2.2 0 0 1 1.26-.013c.425.11.815.344 1.172.7zm-2.801.75c-.225.226-.35.478-.376.758-.026.28.055.547.242.801l1.687-1.685a1.143 1.143 0 0 0-.796-.236 1.172 1.172 0 0 0-.758.363zm2.974-4.473c.53-.53 1.065-.81 1.604-.84.535-.033 1.057.204 1.566.713l1.955 1.953-.93.929-.426-.426c.131.504-.058 1.011-.567 1.52a2.324 2.324 0 0 1-.821.554c-.28.101-.55.125-.809.07a1.359 1.359 0 0 1-.687-.382c-.319-.318-.45-.687-.395-1.107.06-.424.34-.886.84-1.387l.79-.789c-.217-.216-.448-.316-.694-.299-.25.013-.507.15-.77.414a2.404 2.404 0 0 0-.452.63 1.95 1.95 0 0 0-.217.674l-1.05-.337a3.04 3.04 0 0 1 .363-.974c.19-.335.424-.64.7-.916zm2.782 2.933c.17-.17.282-.358.337-.566a.931.931 0 0 0-.07-.63l-.35-.35-.681.68c-.407.408-.477.745-.21 1.012.127.128.278.18.452.16.174-.03.348-.132.522-.306zm4.985-3.646a3.04 3.04 0 0 1-1.21.764 2.466 2.466 0 0 1-1.311.05 2.443 2.443 0 0 1-1.152-.667 2.442 2.442 0 0 1-.669-1.152 2.399 2.399 0 0 1 .057-1.304c.14-.445.393-.85.758-1.215.36-.36.751-.598 1.171-.712.42-.123.832-.107 1.235.05l-.356 1.184c-.492-.136-.906-.036-1.241.299a1.231 1.231 0 0 0-.389.897c0 .339.147.655.44.948.292.292.608.438.948.438.34 0 .639-.129.898-.388.34-.339.439-.752.299-1.24l1.19-.35c.149.395.164.804.045 1.228-.115.42-.352.81-.713 1.17zm.636-7.684c.424-.424.893-.638 1.407-.643.518-.008 1.027.238 1.528.738l1.96 1.96-.993.992-1.808-1.806c-.271-.272-.532-.414-.783-.427-.254-.017-.494.087-.719.312-.25.25-.371.528-.363.833.004.302.16.605.465.91l1.693 1.692-.993.993-4.724-4.72.994-.993 1.655 1.654c0-.263.06-.522.178-.776.115-.259.282-.498.503-.719zm7.488-3.933c.013.012.096.108.248.286l-2.59 2.59c.258.165.536.222.834.171.297-.05.575-.206.833-.464.179-.178.31-.36.395-.547.085-.196.13-.41.134-.643l1.101.044c.047.692-.24 1.347-.86 1.966-.386.386-.801.653-1.247.802-.45.144-.89.163-1.318.057a2.443 2.443 0 0 1-1.152-.668 2.474 2.474 0 0 1-.668-1.139 2.36 2.36 0 0 1 .025-1.285c.127-.432.363-.82.707-1.164a2.7 2.7 0 0 1 1.126-.693 2.199 2.199 0 0 1 1.26-.013c.425.11.816.343 1.172.7zm-2.8.75a1.21 1.21 0 0 0-.377.758c-.025.28.056.547.242.801l1.688-1.686a1.144 1.144 0 0 0-.796-.235 1.173 1.173 0 0 0-.758.362zm3.137-3.631a1.564 1.564 0 0 1 .102-.853c.119-.288.31-.564.573-.827l.916.916a5.057 5.057 0 0 0-.235.21c-.285.284-.427.588-.427.91-.004.318.153.636.471.954l1.617 1.616-.993.993-3.425-3.423.949-.948.452.452z" fill="#FE7975"/><defs><clipPath id="clip0"><path fill="#fff" transform="matrix(-1 0 0 1 44.513 2.426)" d="M0 0h42.895v42.865H0z"/></clipPath></defs></svg>