<svg width="56" height="48" fill="none" xmlns="http://www.w3.org/2000/svg"><g clip-path="url(#clip0)"><path d="M4.123 23.954c-.212.032-.42.046-.625.046-1.661 0-3.135-1.02-3.442-2.466-.342-1.632.923-3.193 2.827-3.486 8.568-1.325 17.772-5.069 27.38-11.083l-4.04-4.201L45.5 0l-6.846 15.691-3.933-4.09c-10.699 6.757-20.734 10.83-30.598 12.353zM10.501 33h-3.5c-1.93 0-3.5 1.341-3.5 2.999v9c0 1.658 1.569 3 3.5 3h3.5c1.935 0 3.5-1.342 3.5-3v-9c0-1.658-1.565-3-3.5-3zm28-12H35c-1.935 0-3.5 1.341-3.5 3v21c0 1.657 1.566 3 3.5 3h3.5c1.934 0 3.5-1.342 3.5-3V24c0-1.658-1.566-3-3.5-3zm14-6H49c-1.934 0-3.5 1.342-3.5 3v27c0 1.657 1.566 3 3.5 3h3.5c1.935 0 3.5-1.343 3.5-3V18c0-1.658-1.565-3-3.5-3zm-28 12H21c-1.931 0-3.5 1.341-3.5 3v15c0 1.657 1.569 3 3.5 3h3.5c1.934 0 3.5-1.343 3.5-3V30c0-1.659-1.566-3-3.5-3z" fill="#CEE0F0"/></g><defs><clipPath id="clip0"><path fill="#fff" d="M0 0h56v48H0z"/></clipPath></defs></svg>