<svg width="45" height="60" fill="none" xmlns="http://www.w3.org/2000/svg"><path d="M5.5 0a5.512 5.512 0 0 0-4.078 1.817A5.52 5.52 0 0 0 .025 6H0v48.958A5.048 5.048 0 0 0 5.042 60H45V0H5.5zM2 54.958V9.998A4.973 4.973 0 0 0 5 11v46.996a3.043 3.043 0 0 1-3-3.038zM43 58H7V11h3v25.201c0 .682.441 1.262 1.099 1.444.137.037.273.056.408.056.015 0 .029-.005.044-.006.045-.001.088-.012.133-.017a1.438 1.438 0 0 0 .437-.122c.094-.043.18-.097.263-.159.036-.027.073-.05.106-.08.111-.099.212-.211.292-.346l4.217-7.028 4.217 7.029a1.47 1.47 0 0 0 1.55.687c.045-.008.089-.002.134-.014a1.486 1.486 0 0 0 1.099-1.444V11h19v47H43zM22.14 9.483l-.003.007-.137.274v.042l-.1.23.1.152V34.39l-5-8.333-5 8.333V10.236L13.618 7h9.764L22.14 9.483zM24.618 9l2-4H12.382l-2 4h-4.67C3.818 9 2.196 7.621 2.019 5.86a3.46 3.46 0 0 1 .887-2.701A3.503 3.503 0 0 1 5.5 2H43v1h-5a1 1 0 1 0 0 2h5v1h-4a1 1 0 1 0 0 2h4v1H24.618z" fill="#fff"/></svg>