<svg width="26" height="30" fill="none" xmlns="http://www.w3.org/2000/svg"><path d="M25.096 7.798H5.153c-1.848 0-3.359-1.378-3.359-3.077 0-1.693 1.504-3.077 3.359-3.077h19.95c.5 0 .897-.371.897-.822C26 .365 25.595 0 25.103 0H5.153C2.313 0 0 2.12 0 4.72v20.56C0 27.88 2.313 30 5.153 30h19.95c.5 0 .897-.37.897-.822V8.62c-.007-.451-.405-.822-.904-.822zM24.2 28.356H5.153c-1.848 0-3.359-1.378-3.359-3.077V8.305a5.427 5.427 0 0 0 3.359 1.143h19.046v18.908z" fill="#26405C"/><path d="M5.436 3.973c-.499 0-.897.37-.897.822 0 .451.405.822.897.822h16.848c.499 0 .897-.37.897-.822 0-.451-.405-.822-.897-.822H5.436zM8.592 24.76c.102.03.203.05.304.05.37 0 .715-.21.843-.544l1.093-2.8h4.208c.034 0 .074 0 .108-.006l1.093 2.806c.128.333.479.543.843.543.101 0 .202-.018.303-.049.466-.155.709-.624.54-1.05l-4.087-10.5a.327.327 0 0 0-.034-.074l-.02-.037-.02-.037c-.007-.013-.02-.025-.027-.043-.007-.007-.014-.02-.02-.025a.164.164 0 0 0-.034-.037c-.007-.007-.014-.019-.027-.025-.007-.012-.02-.019-.034-.03l-.034-.032c-.007-.006-.02-.012-.027-.024-.013-.013-.027-.02-.04-.031-.007-.007-.02-.013-.027-.019-.014-.006-.027-.019-.04-.025l-.041-.018-.04-.019c-.028-.012-.055-.024-.082-.03h-.006a23.603 23.603 0 0 1-.081-.02c-.014 0-.02-.005-.034-.005-.02-.007-.034-.007-.054-.013-.013 0-.027 0-.04-.006-.014 0-.034-.006-.048-.006h-.087c-.014 0-.034 0-.047.006-.014 0-.028 0-.041.006-.02 0-.034.006-.054.013-.013 0-.02.006-.034.006a1.274 1.274 0 0 0-.074.018h-.007c-.027.006-.054.019-.08.031l-.041.019-.04.018c-.014.006-.027.019-.048.025-.006.006-.02.012-.027.019-.013.012-.027.018-.04.03-.007.007-.02.013-.027.025l-.034.031-.034.031c-.006.006-.013.018-.026.025-.014.012-.02.024-.034.037-.007.006-.014.018-.02.025-.007.012-.02.024-.027.037l-.02.037-.02.037a.354.354 0 0 0-.035.074l-4.1 10.498c-.149.433.094.902.56 1.057zm4.405-8.83l1.517 3.893h-3.042l1.525-3.893z" fill="#26405C"/></svg>