<svg width="30" height="28" fill="none" xmlns="http://www.w3.org/2000/svg"><path d="M0 24.719C0 26.529 1.577 28 3.516 28h19.453v-1.64h-2.411c-.615-.353-.977-.954-.977-1.641 0-.688.363-1.289.979-1.64h5.924v-1.642h-2.41c-.616-.352-.977-.953-.977-1.64 0-.687.361-1.289.977-1.64H30v-1.641h-2.41c-.616-.352-.977-.954-.977-1.641s.361-1.289.976-1.64H30v-1.641H17.695v-3.39h11.79l-4.394-4.102L29.485 0H15.938v11.594h-7.15c-1.939 0-3.516 1.472-3.516 3.281 0 .598.173 1.158.473 1.64h-.473c-1.938 0-3.515 1.473-3.515 3.282 0 .675.22 1.303.596 1.825C.984 22.072 0 23.29 0 24.72zM17.695 1.64h7.546L22.605 4.1l2.636 2.462h-7.546V1.64zm4.068 16.515a3.382 3.382 0 0 0 0 3.282H7.031v-3.282h14.732zm-3.515 4.922a3.382 3.382 0 0 0 0 3.281H5.273v-3.28h12.975zm-7.701-6.562v-3.282h14.732a3.385 3.385 0 0 0 0 3.282H10.547zm-3.517-1.64c0-.905.789-1.64 1.758-1.64v3.28c-.97 0-1.758-.735-1.758-1.64zm-1.758 3.281v3.282c-.969 0-1.757-.736-1.757-1.641s.788-1.64 1.757-1.64zm-1.757 4.922v3.281c-.97 0-1.758-.736-1.758-1.64 0-.905.788-1.64 1.758-1.64z" fill="#26405C"/></svg>