<svg width="28" height="28" fill="none" xmlns="http://www.w3.org/2000/svg"><path d="M14 1.4c6.948 0 12.6 5.652 12.6 12.6 0 6.948-5.652 12.6-12.6 12.6-6.948 0-12.6-5.652-12.6-12.6C1.4 7.052 7.052 1.4 14 1.4zM14 0C6.269 0 0 6.268 0 14s6.269 14 14 14 14-6.268 14-14S21.731 0 14 0z" fill="#26405C"/><path d="M19.594 12.48l-7.455-4.905C10.853 6.728 9.8 7.296 9.8 8.836v10.325c0 1.54 1.054 2.11 2.343 1.267l7.448-4.874c1.288-.844 1.29-2.226.003-3.073zm-.994 2.044l-6.62 4.333c-.429.28-.78.091-.78-.422V9.562c0-.513.35-.702.78-.42l6.622 4.358c.429.282.428.743-.002 1.024z" fill="#26405C"/></svg>