<svg width="30" height="30" fill="none" xmlns="http://www.w3.org/2000/svg"><path d="M14.95 16.749a8.03 8.03 0 0 0 8.03-8.03c0-4.433-3.596-8.005-8.03-8.005-4.433 0-8.029 3.596-8.029 8.005 0 4.41 3.596 8.03 8.03 8.03zm0-13.941c3.252 0 5.912 2.66 5.912 5.911 0 3.251-2.66 5.912-5.911 5.912-3.252 0-5.912-2.66-5.912-5.912 0-3.251 2.66-5.911 5.912-5.911zM1.06 29.286h27.88c.592 0 1.06-.468 1.06-1.06 0-5.541-4.507-10.073-10.074-10.073h-9.852C4.532 18.153 0 22.66 0 28.227c0 .59.468 1.059 1.06 1.059zm9.014-9.015h9.852a7.95 7.95 0 0 1 7.882 6.896H2.192c.517-3.867 3.843-6.896 7.882-6.896z" fill="#26405C"/></svg>