<svg width="45" height="60" viewBox="0 0 45 60" fill="none" xmlns="http://www.w3.org/2000/svg">
<path d="M5.5 0C3.953 0 2.467 0.662 1.422 1.817C0.395 2.954 -0.111 4.476 0.0250001 6H0V54.958C0 57.738 2.262 60 5.042 60H45V11V9V0H5.5ZM2 54.958V9.998C2.836 10.627 3.875 11 5 11V57.996C3.342 57.973 2 56.621 2 54.958ZM43 58H7V11H10V36.201C10 36.883 10.441 37.463 11.099 37.645C11.236 37.682 11.372 37.701 11.507 37.701C11.522 37.701 11.536 37.696 11.551 37.695C11.596 37.694 11.639 37.683 11.684 37.678C11.787 37.666 11.886 37.645 11.983 37.612C12.031 37.596 12.076 37.577 12.121 37.556C12.215 37.513 12.301 37.459 12.384 37.397C12.42 37.37 12.457 37.347 12.49 37.317C12.601 37.218 12.702 37.106 12.782 36.971L16.999 29.943L21.216 36.972C21.543 37.517 22.155 37.773 22.766 37.659C22.811 37.651 22.855 37.657 22.9 37.645C23.557 37.462 23.999 36.882 23.999 36.201V11H42.999V58H43ZM22.14 9.483L22.137 9.49L22 9.764V9.806L21.9 10.036L22 10.188V10.3V34.39L17 26.057L12 34.39V10.236L13.618 7H23.382L22.14 9.483ZM24.618 9L26.618 5H12.382L10.382 9H5.712C3.818 9 2.196 7.621 2.019 5.86C1.918 4.862 2.233 3.903 2.906 3.159C3.571 2.422 4.517 2 5.5 2H43V3H38C37.447 3 37 3.447 37 4C37 4.553 37.447 5 38 5H43V6H39C38.447 6 38 6.447 38 7C38 7.553 38.447 8 39 8H43V9H24.618Z" fill="white"/>
</svg>
