<svg width="59" height="59" viewBox="0 0 59 59" fill="none" xmlns="http://www.w3.org/2000/svg">
<path d="M42.5466 25.5339C42.2685 24.83 41.4724 24.4854 40.7683 24.7633C40.0645 25.0416 39.7196 25.8378 39.9978 26.5416C40.6943 28.3029 41.0472 30.1643 41.0472 32.0744C41.0472 40.3719 34.2968 47.1226 25.999 47.1226C17.7007 47.1226 10.9493 40.3719 10.9493 32.0744C10.9493 23.7769 17.7007 17.0262 25.999 17.0262C27.9158 17.0262 29.7804 17.3814 31.5411 18.082C32.2442 18.3621 33.0411 18.0184 33.321 17.3154C33.6009 16.6121 33.2576 15.8153 32.5544 15.5355C30.47 14.706 28.2643 14.2855 25.9991 14.2855C16.1896 14.2855 8.20869 22.2654 8.20869 32.0743C8.20869 41.8832 16.1892 49.8633 25.999 49.8633C35.8078 49.8633 43.7879 41.8833 43.7879 32.0744C43.7879 29.8178 43.3701 27.6174 42.5466 25.5339Z" fill="white"/>
<path d="M50.9951 24.9079C50.787 24.1803 50.0288 23.7597 49.3007 23.9675C48.5731 24.1757 48.152 24.9344 48.3602 25.6619C48.9542 27.7382 49.2554 29.8957 49.2554 32.0742C49.2554 44.8987 38.8226 55.3324 25.9989 55.3324C13.1744 55.3324 2.74077 44.8988 2.74077 32.0742C2.74077 19.2495 13.1743 8.81614 25.9989 8.81614C28.1823 8.81614 30.3435 9.1187 32.422 9.71555C33.1496 9.92429 33.9085 9.50408 34.1173 8.77655C34.3261 8.04901 33.9058 7.29005 33.1783 7.08131C30.8539 6.41378 28.4382 6.07526 25.9989 6.07526C11.663 6.07537 0 17.7384 0 32.0743C0 46.4101 11.663 58.0733 25.9989 58.0733C40.3338 58.0733 51.9962 46.4102 51.9962 32.0743C51.9962 29.6406 51.6594 27.2295 50.9951 24.9079Z" fill="white"/>
<path d="M35.5405 31.2376C35.4733 30.4837 34.8073 29.9301 34.0538 29.9944C33.2999 30.0617 32.7432 30.7274 32.8106 31.4813C32.828 31.6764 32.8368 31.876 32.8368 32.0744C32.8368 35.845 29.7692 38.9124 25.9988 38.9124C22.2273 38.9124 19.1591 35.8448 19.1591 32.0744C19.1593 28.3028 22.2275 25.2347 25.9989 25.2347C26.2096 25.2347 26.4158 25.2438 26.6122 25.2619C27.3665 25.3311 28.0331 24.7768 28.1027 24.023C28.1721 23.2694 27.6174 22.6022 26.8638 22.5326C26.5843 22.5068 26.2933 22.4938 25.999 22.4938C20.7163 22.4938 16.4185 26.7914 16.4185 32.0742C16.4185 37.356 20.7163 41.6529 25.999 41.6529C31.2808 41.6529 35.5778 37.356 35.5778 32.0742C35.5777 31.795 35.5652 31.5133 35.5405 31.2376Z" fill="white"/>
<path d="M57.8749 9.21329C57.4492 8.18523 56.4549 7.52089 55.3421 7.52089H50.5638V2.74272C50.5638 1.62981 49.8995 0.63567 48.8714 0.209903C47.8438 -0.215751 46.6716 0.0176098 45.8849 0.804252L37.901 8.78832C37.1248 9.56441 36.6974 10.5966 36.6974 11.6946V19.4493L25.5603 30.5864C25.0252 31.1215 25.0252 31.9893 25.5603 32.5245C25.8278 32.792 26.1786 32.9259 26.5293 32.9259C26.8799 32.9259 27.2307 32.792 27.4982 32.5245L38.6354 21.3873H46.3901C47.4882 21.3873 48.5204 20.9598 49.2964 20.1839L57.2805 12.1996C58.0673 11.4128 58.3006 10.2408 57.8749 9.21329ZM39.4382 11.6945C39.4383 11.3286 39.5807 10.9847 39.8391 10.7263L47.8231 2.74352V8.32375L39.4381 16.7087V11.6945H39.4382ZM47.3585 18.2457C47.1039 18.5003 46.7509 18.6465 46.3902 18.6465H41.3763L49.7611 10.2618L55.3418 10.2624L47.3585 18.2457Z" fill="white"/>
</svg>
