<svg width="62" height="62" viewBox="0 0 62 62" fill="none" xmlns="http://www.w3.org/2000/svg">
<path d="M61.2364 1.25215C61.1708 0.721522 60.7529 0.303615 60.2224 0.238006C55.442 -0.353251 50.509 0.162136 45.9553 1.72789C41.401 3.29379 37.1937 5.92141 33.7884 9.3267L26.0175 17.0976L14.8004 18.5443C14.5446 18.5772 14.3072 18.694 14.1248 18.8762L3.3098 29.6913C3.00368 29.9974 2.89236 30.4481 3.02094 30.8617C3.1492 31.2752 3.49637 31.5835 3.92205 31.6623L12.0994 33.1769L13.7062 34.7837L10.2853 36.6362C9.96164 36.8114 9.73963 37.1293 9.68661 37.4936C9.63359 37.8579 9.75564 38.2257 10.0159 38.486L22.9881 51.4582C23.2084 51.6785 23.5057 51.7997 23.8127 51.7997C23.8684 51.7997 23.9247 51.7957 23.9806 51.7876C24.3449 51.7346 24.6628 51.5126 24.8381 51.1889L26.6907 47.7681L28.2975 49.3749L29.8121 57.5522C29.891 57.978 30.1992 58.325 30.6127 58.4535C30.7264 58.4887 30.8428 58.5058 30.9585 58.5058C31.2632 58.5058 31.5611 58.3863 31.7833 58.1643L42.5983 47.3492C42.7805 47.167 42.8973 46.9295 42.9303 46.6739L44.3771 35.4566L52.148 27.6855C55.5533 24.2802 58.1809 20.073 59.7468 15.5188C61.3124 10.9651 61.8275 6.03149 61.2364 1.25215ZM12.2771 30.8385L6.52635 29.7734L15.4928 20.8065L23.318 19.7974L12.2771 30.8385ZM23.5318 48.7042L12.7702 37.9427L15.4265 36.5043L24.9701 46.0481L23.5318 48.7042ZM40.6678 45.9815L31.7012 54.9482L30.6359 49.1976L41.677 38.1565L40.6678 45.9815ZM50.4986 26.0369L29.3778 47.1577L14.3167 32.0966L35.4375 10.9756C38.5062 7.90678 42.2785 5.52232 46.3651 4.05871C46.8929 6.77822 48.2227 9.30105 50.1981 11.2763C52.1733 13.2517 54.696 14.5815 57.4157 15.1095C55.9519 19.1957 53.5673 22.9681 50.4986 26.0369ZM58.1176 12.869C55.754 12.4658 53.5553 11.3355 51.847 9.62738C50.1387 7.91922 49.0086 5.72039 48.6054 3.35676C51.9855 2.44585 55.5362 2.13522 59.0204 2.45394C59.3393 5.93821 59.0285 9.48886 58.1176 12.869Z" fill="white"/>
<path d="M34.2997 17.1707C31.5417 19.9289 31.5417 24.4166 34.2997 27.1748C35.6789 28.554 37.4902 29.2434 39.3019 29.2434C41.1129 29.2434 42.925 28.5537 44.3038 27.1748H44.304C47.0621 24.4168 47.0621 19.9289 44.3038 17.1707C41.5456 14.4127 37.0578 14.4128 34.2997 17.1707ZM42.6549 25.5257C40.8057 27.3748 37.7974 27.3745 35.9488 25.5257C34.0998 23.6769 34.0998 20.6685 35.9488 18.8196C36.8731 17.8952 38.0875 17.4332 39.3017 17.4332C40.5161 17.4332 41.7303 17.8954 42.6546 18.8196C44.5036 20.6685 44.5036 23.6769 42.6549 25.5257Z" fill="white"/>
<path d="M15.183 46.5116C14.7275 46.0562 13.9893 46.0562 13.5339 46.5116L3.52964 56.5157C3.07426 56.9711 3.07426 57.7094 3.52964 58.1646C3.7574 58.3922 4.05591 58.5062 4.35426 58.5062C4.65261 58.5062 4.95111 58.3924 5.17888 58.1646L15.183 48.1605C15.6382 47.7053 15.6382 46.967 15.183 46.5116Z" fill="white"/>
<path d="M16.7219 49.6996L12.2146 54.2069C11.7592 54.6623 11.7592 55.4006 12.2146 55.8558C12.4424 56.0834 12.7409 56.1974 13.0392 56.1974C13.3376 56.1974 13.6361 56.0836 13.8638 55.8558L18.3711 51.3486C18.8265 50.8932 18.8265 50.1548 18.3711 49.6996C17.9156 49.2442 17.1774 49.2442 16.7219 49.6996Z" fill="white"/>
<path d="M10.6367 56.268C10.1488 56.268 9.70355 56.5827 9.53875 57.0412C9.37115 57.5073 9.52709 58.0426 9.91437 58.3496C10.3104 58.6637 10.8885 58.6808 11.3024 58.3908C11.744 58.0814 11.9231 57.4875 11.7127 56.9878C11.5397 56.5564 11.0994 56.268 10.6367 56.268Z" fill="white"/>
<path d="M11.7127 56.9878C11.7422 57.0579 11.6847 56.9179 11.7127 56.9878V56.9878Z" fill="white"/>
<path d="M7.33868 59.083L6.71804 59.7036C6.26251 60.159 6.26251 60.8973 6.71789 61.3527C6.94565 61.5803 7.244 61.6943 7.54251 61.6943C7.84085 61.6943 8.13936 61.5804 8.36697 61.3528L8.98761 60.7322C9.44314 60.2768 9.44314 59.5385 8.98777 59.0833C8.53239 58.628 7.7939 58.6276 7.33868 59.083Z" fill="white"/>
<path d="M6.49788 48.8202C6.04235 48.3648 5.30417 48.3648 4.8488 48.8202L0.341532 53.3274C-0.113844 53.7828 -0.113844 54.5211 0.341532 54.9764C0.569297 55.204 0.867802 55.3179 1.16615 55.3179C1.4645 55.3179 1.76301 55.2041 1.99077 54.9764L6.49804 50.4691C6.95326 50.0139 6.95326 49.2755 6.49788 48.8202Z" fill="white"/>
<path d="M8.35888 48.3727C8.83198 48.2538 9.18707 47.8415 9.23636 47.3564C9.28471 46.8814 9.02352 46.416 8.59955 46.2017C8.14946 45.9741 7.58541 46.0691 7.23622 46.434C6.86231 46.8247 6.80836 47.4331 7.10376 47.8853C7.09443 47.8713 7.08728 47.8611 7.10609 47.8898C7.12568 47.9186 7.11899 47.9082 7.10967 47.8943C7.38438 48.2934 7.88578 48.4917 8.35888 48.3727Z" fill="white"/>
<path d="M11.3743 45.593L11.9947 44.9724C12.4501 44.517 12.4501 43.7787 11.9946 43.3234C11.5387 42.8679 10.8004 42.8681 10.3457 43.3236L9.72518 43.9442C9.2698 44.3996 9.2698 45.1379 9.72533 45.5932C9.9531 45.8208 10.2514 45.9346 10.5498 45.9346C10.8481 45.9346 11.1466 45.8208 11.3743 45.593Z" fill="white"/>
</svg>
