<svg width="26" height="30" viewBox="0 0 26 30" fill="none" xmlns="http://www.w3.org/2000/svg">
<path d="M25.0962 7.79815H5.15279C3.3048 7.79815 1.79403 6.42019 1.79403 4.72091C1.79403 3.02781 3.29805 1.64367 5.15279 1.64367H25.103C25.6021 1.64367 26 1.27291 26 0.821833C26 0.364573 25.5953 0 25.103 0H5.15279C2.31336 0 0 2.11946 0 4.72091V25.2791C0 27.8805 2.31336 30 5.15279 30H25.103C25.6021 30 26 29.6292 26 29.1782V8.61998C25.9933 8.1689 25.5953 7.79815 25.0962 7.79815ZM24.1992 28.3563H5.15279C3.3048 28.3563 1.79403 26.9784 1.79403 25.2791V8.30484C2.69779 9.01545 3.87134 9.44799 5.15279 9.44799H24.1992V28.3563Z" fill="#26405C"/>
<path d="M5.43614 3.97314C4.93705 3.97314 4.53912 4.3439 4.53912 4.79498C4.53912 5.24606 4.94379 5.61681 5.43614 5.61681H22.2839C22.783 5.61681 23.1809 5.24606 23.1809 4.79498C23.1809 4.3439 22.7762 3.97314 22.2839 3.97314H5.43614Z" fill="#26405C"/>
<path d="M8.59249 24.76C8.69366 24.7909 8.79482 24.8094 8.89599 24.8094C9.26694 24.8094 9.61091 24.5993 9.73905 24.2656L10.8317 21.4664H15.0402C15.0739 21.4664 15.1144 21.4664 15.1481 21.4603L16.2407 24.2656C16.3689 24.5993 16.7196 24.8094 17.0838 24.8094C17.185 24.8094 17.2861 24.7909 17.3873 24.76C17.8527 24.6055 18.0955 24.1359 17.9269 23.7095L13.8397 13.211C13.833 13.1863 13.8195 13.1616 13.806 13.1369C13.7992 13.1245 13.7925 13.1122 13.7857 13.0998C13.779 13.0875 13.7723 13.0751 13.7655 13.0627C13.7588 13.0504 13.7453 13.038 13.7385 13.0195C13.7318 13.0133 13.725 13.0009 13.7183 12.9948C13.7116 12.9824 13.6981 12.97 13.6846 12.9577C13.6778 12.9515 13.6711 12.9392 13.6576 12.933C13.6509 12.9206 13.6374 12.9144 13.6239 12.9021C13.6104 12.8897 13.6036 12.8835 13.5902 12.8712C13.5834 12.865 13.5699 12.8588 13.5632 12.8465C13.5497 12.8341 13.5362 12.8279 13.5227 12.8156C13.516 12.8094 13.5025 12.8032 13.4957 12.797C13.4822 12.7908 13.4688 12.7785 13.4553 12.7723C13.4418 12.7661 13.4283 12.76 13.4148 12.7538C13.4013 12.7476 13.3878 12.7414 13.3743 12.7352C13.3474 12.7229 13.3204 12.7105 13.2934 12.7043H13.2867C13.2597 12.6982 13.2327 12.692 13.2057 12.6858C13.1922 12.6858 13.1855 12.6796 13.172 12.6796C13.1518 12.6734 13.1383 12.6734 13.118 12.6673C13.1046 12.6673 13.0911 12.6673 13.0776 12.6611C13.0641 12.6611 13.0438 12.6549 13.0304 12.6549C13.0169 12.6549 13.0034 12.6549 12.9899 12.6549C12.9764 12.6549 12.9629 12.6549 12.9427 12.6549C12.9292 12.6549 12.909 12.6549 12.8955 12.6611C12.882 12.6611 12.8685 12.6611 12.855 12.6673C12.8348 12.6673 12.8213 12.6734 12.801 12.6796C12.7876 12.6796 12.7808 12.6858 12.7673 12.6858C12.7403 12.692 12.7134 12.6982 12.6931 12.7043H12.6864C12.6594 12.7105 12.6324 12.7229 12.6055 12.7352C12.592 12.7414 12.5785 12.7476 12.565 12.7538C12.5515 12.76 12.538 12.7661 12.5245 12.7723C12.511 12.7785 12.4975 12.7908 12.4773 12.797C12.4706 12.8032 12.4571 12.8094 12.4503 12.8156C12.4368 12.8279 12.4234 12.8341 12.4099 12.8465C12.4031 12.8526 12.3896 12.8588 12.3829 12.8712C12.3694 12.8835 12.3627 12.8897 12.3492 12.9021C12.3357 12.9144 12.3289 12.9206 12.3154 12.933C12.3087 12.9392 12.302 12.9515 12.2885 12.9577C12.275 12.97 12.2682 12.9824 12.2547 12.9948C12.248 13.0009 12.2413 13.0133 12.2345 13.0195C12.2278 13.0318 12.2143 13.0442 12.2075 13.0566C12.2008 13.0689 12.194 13.0813 12.1873 13.0936C12.1806 13.106 12.1738 13.1183 12.1671 13.1307C12.1536 13.1554 12.1401 13.1801 12.1333 13.2049L8.0327 23.7033C7.88432 24.1359 8.12712 24.6055 8.59249 24.76ZM12.9966 15.9299L14.5141 19.8228H11.4724L12.9966 15.9299Z" fill="#26405C"/>
</svg>
