<svg width="30" height="28" viewBox="0 0 30 28" fill="none" xmlns="http://www.w3.org/2000/svg">
<path d="M0 24.7188C0 26.5281 1.577 28 3.51562 28H22.9688V26.3594H20.5579C19.9429 26.0073 19.5813 25.406 19.5813 24.7188C19.5813 24.0311 19.9441 23.4302 20.5598 23.0781H26.4844V21.4375H24.0736C23.4583 21.0854 23.0969 20.4841 23.0969 19.7969C23.0969 19.1096 23.4583 18.5083 24.0736 18.1562H30V16.5156H27.5892C26.974 16.1636 26.6125 15.5622 26.6125 14.875C26.6125 14.1878 26.974 13.5864 27.5892 13.2344H30V11.5938C29.7194 11.5938 17.9734 11.5938 17.6953 11.5938V8.20312H29.4852L25.0907 4.10156L29.4852 0H15.9375V11.5938H8.78906C6.85043 11.5938 5.27344 13.0656 5.27344 14.875C5.27344 15.4725 5.44624 16.0326 5.74631 16.5156H5.27344C3.33481 16.5156 1.75781 17.9875 1.75781 19.7969C1.75781 20.4721 1.97777 21.1002 2.35382 21.6225C0.98465 22.0713 0 23.2894 0 24.7188ZM17.6953 1.64062H25.2413L22.6046 4.10156L25.2413 6.5625H17.6953V1.64062ZM21.7632 18.1562C21.489 18.6525 21.3391 19.212 21.3391 19.7969C21.3391 20.3818 21.489 20.9413 21.7632 21.4375C21.0997 21.4375 7.771 21.4375 7.03125 21.4375V18.1562H21.7632ZM18.2476 23.0781C17.9734 23.5744 17.8235 24.1339 17.8235 24.7188C17.8235 25.3036 17.9734 25.8631 18.2476 26.3594H5.27344V23.0781H18.2476ZM10.5469 16.5156V13.2337H25.2789C25.0047 13.7302 24.8547 14.2901 24.8547 14.875C24.8547 15.4599 25.0047 16.0194 25.2789 16.5156C24.3713 16.5156 11.0738 16.5156 10.5469 16.5156ZM7.03125 14.875C7.03125 13.9703 7.81975 13.2344 8.78906 13.2344V16.5156C7.81975 16.5156 7.03125 15.7797 7.03125 14.875ZM5.27344 18.1562V21.4375C4.30412 21.4375 3.51562 20.7016 3.51562 19.7969C3.51562 18.8922 4.30412 18.1562 5.27344 18.1562ZM3.51562 23.0781V26.3594C2.54631 26.3594 1.75781 25.6234 1.75781 24.7188C1.75781 23.8141 2.54631 23.0781 3.51562 23.0781Z" fill="#26405C"/>
</svg>
