<svg width="30" height="30" viewBox="0 0 30 30" fill="none" xmlns="http://www.w3.org/2000/svg">
<path d="M14.9508 16.7487C19.3843 16.7487 22.9803 13.1527 22.9803 8.71918C22.9803 4.28572 19.3842 0.714233 14.9508 0.714233C10.5173 0.714233 6.9212 4.31031 6.9212 8.71918C6.9212 13.1281 10.5172 16.7487 14.9508 16.7487ZM14.9508 2.80784C18.202 2.80784 20.8621 5.46792 20.8621 8.71918C20.8621 11.9704 18.202 14.6305 14.9508 14.6305C11.6995 14.6305 9.03941 11.9704 9.03941 8.71913C9.03941 5.46787 11.6995 2.80784 14.9508 2.80784Z" fill="#26405C"/>
<path d="M1.0591 29.2857H28.9409C29.532 29.2857 30 28.8178 30 28.2266C30 22.6847 25.4926 18.1527 19.9261 18.1527H10.0739C4.53203 18.1527 0 22.6601 0 28.2266C0 28.8178 0.467973 29.2857 1.0591 29.2857ZM10.0739 20.2709H19.9261C23.9655 20.2709 27.2906 23.2759 27.8079 27.1675H2.19211C2.70933 23.3005 6.0345 20.2709 10.0739 20.2709Z" fill="#26405C"/>
</svg>
