<svg width="28" height="28" viewBox="0 0 28 28" fill="none" xmlns="http://www.w3.org/2000/svg">
<path d="M14 1.4C20.9477 1.4 26.6 7.05227 26.6 14C26.6 20.9477 20.9477 26.6 14 26.6C7.05227 26.6 1.4 20.9477 1.4 14C1.4 7.05227 7.05227 1.4 14 1.4ZM14 0C6.26873 0 0 6.26827 0 14C0 21.7317 6.26873 28 14 28C21.7313 28 28 21.7317 28 14C28 6.26827 21.7313 0 14 0Z" fill="#26405C"/>
<path d="M19.5939 12.4809L12.1394 7.57488C10.8528 6.72835 9.79999 7.29628 9.79999 8.83628V19.1613C9.79999 20.7013 10.8542 21.2711 12.1431 20.4278L19.5906 15.5539C20.8791 14.7097 20.8805 13.3275 19.5939 12.4809ZM18.6004 14.5245L11.9807 18.8565C11.5514 19.1379 11.2 18.948 11.2 18.4347V9.56241C11.2 9.04908 11.5509 8.86008 11.9798 9.14241L18.6018 13.5001C19.0307 13.782 19.0302 14.2431 18.6004 14.5245Z" fill="#26405C"/>
</svg>
