<svg width="109" height="116" fill="none" xmlns="http://www.w3.org/2000/svg"><path stroke="#FE7975" stroke-width="2" d="M1.415 54.83L47.527 8.716 93.64 54.829l-46.113 46.113z"/><g clip-path="url(#clip0)"><path d="M2.872 17.876a2.18 2.18 0 0 1 .82-1.655 2.181 2.181 0 0 1 1.794-.436l6.13 1.226.767-1.037a4.498 4.498 0 0 1 5.271-1.508l4.36 1.626 4.28-2.641a1.178 1.178 0 0 1 1.73 1.392l-2.204 6.283c.82 4.568 2.81 11.201 4.836 12.214 2.959 1.479 17.359 3.975 31.891 2.672 4.686-.42 10.766 3.33 10.766 3.33a5.798 5.798 0 0 1 3.497 6.934l-1.98 7.304c-.24 2.263-.92 4.644-2.419 6.697l-.613 3.678a4.696 4.696 0 0 1-2.34 3.336l-3.373 1.898a1.177 1.177 0 0 1-1.155 0l-2.573-1.447a1.178 1.178 0 0 1-.282-1.833l2.112-2.252.088-2.285c-2.153.36-6.495 1.028-11.65 1.511-9.237.867-16.855.791-22.675-.223a4.247 4.247 0 0 1-2.35 3.063L22.594 68.1a1.18 1.18 0 0 1-.666.104l-4.664-.644a1.178 1.178 0 0 1-.904-1.668 8.661 8.661 0 0 1 4.749-4.416l.265-.102-.752-1.974c-6.73-3.891-10.746-11.348-10.26-19.128l.698-11.196-5.582-3.435a5.643 5.643 0 0 1-2.676-4.928l.07-2.837zm69.586 23.662l-.203-.08c1.267 1.797 1.712 3.29 1.781 3.545.039.127.174.588.328 1.292l.173-.636a3.446 3.446 0 0 0-2.079-4.121zM6.712 23.634l3.602 2.217a8.568 8.568 0 0 0 4.937 1.264l.186-.009a1.178 1.178 0 0 1 .117 2.353s-.555.023-.74.023c-.475 0-.947-.032-1.414-.092l-.688 11.029C12.35 46.22 14.816 51.818 19.16 55.5a1.178 1.178 0 0 1 2.26-.621l2.573 6.753a1.178 1.178 0 0 1-.677 1.52l-1.361.523a6.32 6.32 0 0 0-2.551 1.802l2.497.345 4.687-2.227c.55-.26.942-.775 1.048-1.375a12.959 12.959 0 0 0-.694-6.975 1.178 1.178 0 0 1 2.193-.859 15.307 15.307 0 0 1 1.048 5.922c9.69 1.728 23.041.295 30.163-.717a11.981 11.981 0 0 1-3.17-2.645 11.877 11.877 0 0 1-2.796-8.814 1.179 1.179 0 0 1 2.346.21 9.54 9.54 0 0 0 2.246 7.08 9.54 9.54 0 0 0 6.621 3.365c.006 0 .011.002.017.003a1.174 1.174 0 0 1 1.074 1.217l-.161 4.18c-.01.284-.124.554-.318.761l-1.385 1.477.687.386 2.795-1.573a2.351 2.351 0 0 0 1.172-1.67l.66-3.961a1.16 1.16 0 0 1 .23-.526c3.909-5.068 1.44-13.324 1.414-13.405a1.097 1.097 0 0 1-.015-.055c-.01-.038-1.043-3.887-5.51-6.517a5.716 5.716 0 0 0-3.464-.749c-14.674 1.518-29.62-1.125-33.187-2.909-1.794-.896-3.328-3.533-4.69-8.06a54.649 54.649 0 0 1-.851-3.204 4.286 4.286 0 0 1-2.01.893l-2.189.35a1.178 1.178 0 0 1-.372-2.326l2.189-.35a1.934 1.934 0 0 0 1.52-1.27l1.501-4.277-4.726 2.917a1.178 1.178 0 0 1-1.238-2.005l.739-.456-2.655-.99a2.142 2.142 0 0 0-2.543.705l-.202.273.619.177a1.178 1.178 0 0 1-.648 2.265l-8.824-1.954-.065 2.636a3.28 3.28 0 0 0 1.555 2.864z" fill="#CEE0F0"/></g><path d="M69.231 12.813l1.675 1.674-3.214 3.213a6.766 6.766 0 0 1-2.24-.747 8.196 8.196 0 0 1-1.968-1.448c-.822-.822-1.388-1.734-1.697-2.738a5.673 5.673 0 0 1-.09-3.009c.256-.996.776-1.886 1.56-2.67.785-.784 1.671-1.301 2.66-1.55a5.494 5.494 0 0 1 3.02.102c1.018.31 1.942.879 2.772 1.708.694.694 1.207 1.44 1.539 2.24.331.8.467 1.614.407 2.444l-2.263-.09c.03-1.162-.354-2.143-1.154-2.942-.505-.505-1.06-.849-1.663-1.03a3.214 3.214 0 0 0-1.81-.022c-.604.166-1.154.498-1.652.995-.49.49-.818 1.038-.984 1.64a3.354 3.354 0 0 0 0 1.811c.18.604.52 1.154 1.018 1.652.528.528 1.116.89 1.765 1.086l2.32-2.32zm1.974 10.323c-.64-.64-1.086-1.35-1.335-2.127a4.291 4.291 0 0 1-.068-2.308c.189-.762.585-1.444 1.188-2.047.604-.604 1.286-1 2.048-1.188a4.18 4.18 0 0 1 2.297.079c.784.241 1.497.682 2.138 1.324.641.64 1.079 1.35 1.313 2.126a4.18 4.18 0 0 1 .079 2.297c-.189.762-.585 1.444-1.188 2.048-.604.603-1.286 1-2.048 1.188a4.292 4.292 0 0 1-2.308-.068c-.77-.241-1.475-.683-2.116-1.324zm1.448-1.448c.453.453.973.671 1.562.656.603-.015 1.161-.279 1.674-.792.513-.513.773-1.067.78-1.663.023-.596-.191-1.12-.644-1.572-.453-.453-.98-.672-1.584-.657-.596.008-1.15.268-1.663.781-.513.513-.777 1.071-.792 1.675-.008.595.215 1.12.667 1.572zm5.966 8.862c-.641-.641-1.086-1.35-1.335-2.127a4.292 4.292 0 0 1-.068-2.308c.189-.762.585-1.445 1.188-2.048s1.286-1 2.048-1.188a4.18 4.18 0 0 1 2.296.08c.785.24 1.498.682 2.139 1.323.64.641 1.078 1.35 1.312 2.127a4.18 4.18 0 0 1 .08 2.297c-.19.761-.585 1.444-1.189 2.047-.603.604-1.286 1-2.047 1.188a4.291 4.291 0 0 1-2.308-.068c-.77-.24-1.475-.682-2.116-1.323zm1.448-1.448c.453.452.973.67 1.561.656.604-.015 1.162-.28 1.675-.792.513-.513.773-1.067.78-1.663.023-.596-.192-1.12-.644-1.573-.453-.452-.981-.671-1.584-.656-.596.007-1.15.268-1.663.78-.513.514-.777 1.072-.792 1.675-.008.596.215 1.12.667 1.573zm17.755 3.68l-8.395 8.394-1.686-1.685.701-.702c-.965.09-1.863-.279-2.692-1.109-.574-.573-.966-1.221-1.177-1.946a3.91 3.91 0 0 1 .011-2.183c.212-.74.63-1.422 1.256-2.048.626-.626 1.309-1.044 2.048-1.256a3.91 3.91 0 0 1 2.183-.01c.725.21 1.373.603 1.947 1.176.776.777 1.138 1.629 1.086 2.557l2.953-2.953 1.764 1.765zm-10.319 3.756c.445.445.966.664 1.562.656.603-.015 1.161-.28 1.674-.792.513-.513.773-1.067.78-1.663.016-.603-.2-1.128-.644-1.573-.453-.452-.98-.671-1.584-.656-.596.008-1.15.268-1.663.78-.513.514-.777 1.072-.792 1.675-.008.596.215 1.12.667 1.573zm-26.241 70.76a2.665 2.665 0 0 1-.35.939c-.19.31-.423.604-.702.883-.724.724-1.47 1.101-2.24 1.131-.762.023-1.501-.324-2.218-1.041l-2.5-2.5-.94.939-1.357-1.358.94-.939-1.483-1.482 1.765-1.765 1.482 1.482 1.516-1.516 1.358 1.358-1.516 1.516 2.478 2.478c.256.256.52.392.792.407.271 0 .528-.121.769-.362.279-.279.441-.592.486-.939l1.72.769zm4.039-9.492c.022.023.17.193.441.51l-4.605 4.604c.46.294.954.396 1.482.306.528-.091 1.022-.366 1.483-.826.316-.317.55-.641.7-.973.152-.347.231-.728.238-1.143l1.958.079c.083 1.23-.426 2.395-1.528 3.496-.686.687-1.425 1.162-2.217 1.426-.8.256-1.58.29-2.342.102-.762-.189-1.444-.585-2.048-1.188-.596-.596-.992-1.271-1.188-2.025a4.202 4.202 0 0 1 .046-2.286c.226-.77.644-1.46 1.255-2.07.596-.596 1.264-1.007 2.003-1.233a3.905 3.905 0 0 1 2.24-.023c.754.196 1.448.61 2.082 1.245zm-4.978 1.335c-.4.4-.623.849-.668 1.347-.045.498.098.973.43 1.425l2.998-2.998c-.445-.324-.916-.464-1.414-.418-.505.037-.954.252-1.346.644zm5.286-7.955c.942-.943 1.893-1.441 2.85-1.494.951-.06 1.879.362 2.784 1.267l3.473 3.474-1.652 1.651-.758-.758c.234.898-.102 1.8-1.007 2.704-.467.468-.954.796-1.459.985-.498.18-.977.222-1.437.124a2.415 2.415 0 0 1-1.222-.679c-.566-.565-.8-1.222-.701-1.968.105-.755.603-1.577 1.493-2.467l1.403-1.403c-.385-.384-.796-.561-1.233-.531-.445.022-.901.268-1.37.735a4.276 4.276 0 0 0-.802 1.12 3.47 3.47 0 0 0-.385 1.2l-1.867-.6c.098-.566.313-1.143.645-1.731a7.648 7.648 0 0 1 1.245-1.63zm4.944 5.215a2.23 2.23 0 0 0 .6-1.007c.09-.377.048-.75-.125-1.12l-.622-.622-1.21 1.21c-.725.725-.85 1.324-.374 1.8.226.226.494.32.803.282.31-.053.618-.234.928-.543zm8.859-6.483c-.649.649-1.365 1.101-2.15 1.358a4.38 4.38 0 0 1-2.33.09c-.762-.188-1.445-.584-2.048-1.188-.603-.603-1-1.286-1.188-2.048a4.266 4.266 0 0 1 .102-2.319c.249-.792.698-1.512 1.346-2.16.641-.642 1.335-1.064 2.082-1.268a3.32 3.32 0 0 1 2.195.09l-.634 2.105c-.875-.241-1.61-.064-2.206.532-.46.46-.69.992-.69 1.595s.26 1.165.78 1.686c.52.52 1.083.78 1.686.78.604 0 1.135-.23 1.596-.69.603-.603.78-1.339.531-2.206l2.116-.622c.264.701.29 1.429.08 2.183-.205.747-.627 1.44-1.268 2.082zm1.13-13.666c.755-.754 1.588-1.135 2.5-1.143.92-.015 1.826.423 2.716 1.313l3.485 3.484-1.765 1.765-3.213-3.213c-.483-.483-.947-.735-1.392-.758-.453-.03-.879.155-1.279.555-.444.445-.66.939-.644 1.482.007.535.282 1.075.825 1.618l3.01 3.009-1.765 1.765-8.395-8.395 1.765-1.765 2.942 2.942c0-.468.105-.928.317-1.38.203-.46.501-.887.893-1.279zm13.308-6.995c.023.023.17.193.442.51l-4.605 4.604c.46.294.954.396 1.482.306.528-.091 1.022-.366 1.482-.826a3.36 3.36 0 0 0 .702-.973c.15-.347.23-.728.237-1.143l1.957.08c.083 1.228-.426 2.394-1.527 3.495-.686.686-1.425 1.162-2.217 1.425-.8.257-1.58.29-2.342.102s-1.445-.584-2.048-1.188c-.596-.595-.992-1.27-1.188-2.025a4.2 4.2 0 0 1 .045-2.285c.226-.77.645-1.46 1.256-2.07.596-.596 1.263-1.007 2.002-1.234a3.905 3.905 0 0 1 2.24-.022c.755.196 1.449.61 2.082 1.244zm-4.978 1.335c-.4.4-.622.849-.667 1.347-.046.497.098.973.43 1.425l2.998-2.998c-.445-.324-.917-.464-1.414-.419-.506.038-.954.253-1.347.645zm5.576-6.458a2.783 2.783 0 0 1 .181-1.516c.212-.513.551-1.003 1.019-1.471l1.629 1.63a8.98 8.98 0 0 0-.419.373c-.505.505-.758 1.044-.758 1.617-.007.566.272 1.132.837 1.697l2.874 2.874-1.765 1.765-6.087-6.087 1.686-1.686.803.804z" fill="#FE7975"/><defs><clipPath id="clip0"><path fill="#fff" transform="matrix(-1 0 0 1 77.015 4.2)" d="M0 0h74.215v74.214H0z"/></clipPath></defs></svg>