<svg width="375" height="175" fill="none" xmlns="http://www.w3.org/2000/svg"><g filter="url(#filter0_d)" stroke-width="2"><path d="M0 161c5-16 21-68.636 60-71 39-2.364 40 71 95 71S214 37 267 37s41 95 105 95" stroke="#000"/><path d="M0 161c5-16 21-68.636 60-71 39-2.364 40 71 95 71S214 37 267 37s41 95 105 95" stroke="url(#paint0_linear)"/></g><circle r="7" transform="matrix(1 0 0 -1 271 37)" fill="#FE7975"/><circle r="4.846" transform="matrix(1 0 0 -1 271 37)" fill="#fff"/><circle cx="305" cy="15" r="15" fill="#FE7975"/><path d="M313.031 6.065C312.407 5.378 311.576 5 310.694 5c-.883 0-1.713.377-2.337 1.064l-9.941 10.867a.622.622 0 0 0-.132.227l-2.25 6.803a.665.665 0 0 0 .121.638.539.539 0 0 0 .408.192.5.5 0 0 0 .165-.027l5.596-1.887a.552.552 0 0 0 .233-.154l10.474-11.517c.626-.685.969-1.6.969-2.57 0-.971-.343-1.884-.969-2.571zm-11.354 15.736l-2.095.708a2.701 2.701 0 0 0-.571-1.028 3.063 3.063 0 0 0-.763-.595l.959-2.898h1.293v1.237c0 .342.252.618.563.618h.993l-.379 1.958zm8.28-8.964l-6.853 7.535.197-1.018a.669.669 0 0 0-.114-.518.543.543 0 0 0-.437-.23h-1.125V17.37c0-.342-.252-.619-.562-.619h-.888l6.69-7.313.007.006c.412-.453.96-.702 1.542-.702.582 0 1.131.249 1.543.702.411.454.64 1.056.64 1.697 0 .64-.227 1.242-.64 1.696zm2.278-2.505l-.524.577a3.783 3.783 0 0 0-.958-2.34 3.15 3.15 0 0 0-2.13-1.052l.528-.576.001-.001c.41-.454.959-.703 1.542-.703.582 0 1.13.25 1.541.703.413.453.64 1.055.64 1.695a2.5 2.5 0 0 1-.64 1.697zm-3.695-.203l-5.625 6.185a.662.662 0 0 0 0 .874c.109.12.254.182.398.182a.54.54 0 0 0 .398-.182l5.625-6.184a.662.662 0 0 0 0-.875.527.527 0 0 0-.796 0z" fill="#fff"/><defs><filter id="filter0_d" x="-.954" y="36" width="395.954" height="139" filterUnits="userSpaceOnUse" color-interpolation-filters="sRGB"><feFlood flood-opacity="0" result="BackgroundImageFix"/><feColorMatrix in="SourceAlpha" values="0 0 0 0 0 0 0 0 0 0 0 0 0 0 0 0 0 0 127 0"/><feOffset dx="20" dy="10"/><feGaussianBlur stdDeviation="1.5"/><feColorMatrix values="0 0 0 0 0.6 0 0 0 0 0.5525 0 0 0 0 0.5525 0 0 0 0.21 0"/><feBlend in2="BackgroundImageFix" result="effect1_dropShadow"/><feBlend in="SourceGraphic" in2="effect1_dropShadow" result="shape"/></filter><linearGradient id="paint0_linear" x1="186" y1="175" x2="186" y2="99" gradientUnits="userSpaceOnUse"><stop stop-color="#47607A"/><stop offset="1" stop-color="#5A7B9F"/></linearGradient></defs></svg>