<svg width="342" height="178" viewBox="0 0 342 178" fill="none" xmlns="http://www.w3.org/2000/svg">
<path d="M0 176.001C15 176.001 16 75.0011 30 75.5011C44 76.0011 38 176.001 56.5 176.001C75 176.001 63 44.5011 84 44.5011C105 44.5011 91.5 176.001 110 176.001C128.5 176.001 123.5 111.501 140 111.001C156.5 110.501 153.5 176.001 168 176.001C182.5 176.001 179 87.5011 195 87.5011C211 87.5011 202.5 176.001 223 176.001C243.5 176.001 229 7.50111 251 8.00111C273 8.50111 259 176.001 279 176.001C299 176.001 292 138.501 307 138.501C322 138.501 314.5 176.001 335 176.001" stroke="url(#paint0_linear)" stroke-width="3"/>
<path d="M7 170.001C22 170.001 23 69.0011 37 69.5011C51 70.0011 45 170.001 63.5 170.001C82 170.001 70 38.5011 91 38.5011C112 38.5011 98.5 170.001 117 170.001C135.5 170.001 130.5 105.501 147 105.001C163.5 104.501 160.5 170.001 175 170.001C189.5 170.001 186 81.5011 202 81.5011C218 81.5011 209.5 170.001 230 170.001C250.5 170.001 236 1.50111 258 2.00111C280 2.50111 266 170.001 286 170.001C306 170.001 299 132.501 314 132.501C329 132.501 321.5 170.001 342 170.001" stroke="url(#paint1_linear)" stroke-opacity="0.07" stroke-width="3"/>
<defs>
<linearGradient id="paint0_linear" x1="167.5" y1="8" x2="168" y2="248.001" gradientUnits="userSpaceOnUse">
<stop offset="0.207443" stop-color="#5FCFA9"/>
<stop offset="1" stop-color="#CEE0F0" stop-opacity="0"/>
</linearGradient>
<linearGradient id="paint1_linear" x1="174.5" y1="2" x2="175" y2="242.001" gradientUnits="userSpaceOnUse">
<stop offset="0.207443" stop-color="#5FCFA9"/>
<stop offset="1" stop-color="#CEE0F0" stop-opacity="0"/>
</linearGradient>
</defs>
</svg>
