<svg width="56" height="48" viewBox="0 0 56 48" fill="none" xmlns="http://www.w3.org/2000/svg">
<g clip-path="url(#clip0)">
<path d="M4.12311 23.9539C3.91121 23.986 3.70267 24.0005 3.49781 24.0005C1.83658 24.0005 0.363469 22.9809 0.0558982 21.5339C-0.286181 19.9024 0.978842 18.3407 2.88267 18.0477C11.4513 16.7231 20.6554 12.9792 30.2635 6.96499L26.2236 2.76369L45.5004 0.000938416L38.6544 15.6923L34.7207 11.6024C24.0221 18.3583 13.9873 22.4306 4.12311 23.9539ZM10.5011 33.0005H7.00101C5.07006 33.0005 3.50093 34.3421 3.50093 36V45.0001C3.50093 46.6584 5.06994 48 7.00101 48H10.5011C12.4356 48 14.0008 46.6584 14.0008 45.0001V36C14.0008 34.3421 12.4356 33.0005 10.5011 33.0005ZM38.5003 21.0007H35.0003C33.0661 21.0007 31.5009 22.3423 31.5009 24.0005V45.0001C31.5009 46.6584 33.0661 48 35.0003 48H38.5003C40.4352 48 42.0004 46.6584 42.0004 45.0001V24.0005C42.0004 22.3424 40.4351 21.0007 38.5003 21.0007ZM52.5004 15.0007H48.9999C47.0656 15.0007 45.5004 16.3426 45.5004 18.0008V45.0002C45.5004 46.6585 47.0656 48.0001 48.9999 48.0001H52.5004C54.4347 48.0001 55.9999 46.6585 55.9999 45.0002V18.0007C56 16.3426 54.4347 15.0007 52.5004 15.0007ZM24.5007 27.0004H21.0009C19.0699 27.0004 17.5008 28.3425 17.5008 30.0004V45.0002C17.5008 46.6585 19.0698 48.0001 21.0009 48.0001H24.5007C26.4355 48.0001 28.0007 46.6585 28.0007 45.0002V30.0004C28.0007 28.3425 26.4355 27.0004 24.5007 27.0004Z" fill="#CEE0F0"/>
</g>
<defs>
<clipPath id="clip0">
<rect width="56" height="48" fill="white"/>
</clipPath>
</defs>
</svg>
