<svg width="59" height="59" fill="none" xmlns="http://www.w3.org/2000/svg"><path d="M42.547 25.534a1.37 1.37 0 0 0-2.55 1.008 14.98 14.98 0 0 1 1.05 5.532c0 8.298-6.75 15.049-15.048 15.049s-15.05-6.751-15.05-15.049c0-8.297 6.752-15.048 15.05-15.048 1.917 0 3.781.355 5.542 1.056a1.37 1.37 0 1 0 1.013-2.546A17.65 17.65 0 0 0 26 14.286c-9.81 0-17.79 7.98-17.79 17.788 0 9.81 7.98 17.79 17.79 17.79 9.809 0 17.789-7.98 17.789-17.79 0-2.256-.418-4.457-1.241-6.54z" fill="#fff"/><path d="M50.995 24.908a1.37 1.37 0 0 0-2.635.754c.594 2.076.895 4.234.895 6.412C49.255 44.9 38.823 55.332 26 55.332c-12.826 0-23.26-10.432-23.26-23.258 0-12.824 10.433-23.258 23.258-23.258 2.183 0 4.345.303 6.423.9a1.37 1.37 0 1 0 .756-2.635 26.003 26.003 0 0 0-7.18-1.006C11.664 6.075 0 17.738 0 32.075 0 46.41 11.663 58.072 25.999 58.072c14.335 0 25.997-11.663 25.997-25.999 0-2.433-.337-4.844-1-7.166z" fill="#fff"/><path d="M35.54 31.238a1.37 1.37 0 0 0-2.73.244 6.846 6.846 0 0 1-6.812 7.431 6.847 6.847 0 0 1-6.839-6.839 6.848 6.848 0 0 1 7.453-6.812 1.37 1.37 0 1 0 .252-2.73 9.452 9.452 0 0 0-.865-.038c-5.283 0-9.58 4.297-9.58 9.58 0 5.282 4.297 9.579 9.58 9.579 5.282 0 9.579-4.297 9.579-9.579 0-.279-.013-.56-.038-.836z" fill="#fff"/><path d="M57.875 9.213a2.733 2.733 0 0 0-2.533-1.692h-4.778V2.743A2.733 2.733 0 0 0 48.87.21a2.732 2.732 0 0 0-2.986.594L37.9 8.788a4.083 4.083 0 0 0-1.204 2.907v7.754L25.56 30.586a1.37 1.37 0 0 0 1.938 1.939l11.137-11.138h7.755c1.098 0 2.13-.427 2.906-1.203l7.985-7.984a2.732 2.732 0 0 0 .594-2.987zm-18.437 2.482c0-.366.143-.71.401-.969l7.984-7.982v5.58l-8.385 8.385v-5.014zm7.92 6.55a1.375 1.375 0 0 1-.968.401h-5.014l8.385-8.384h5.58l-7.983 7.984z" fill="#fff"/></svg>