<svg width="62" height="62" fill="none" xmlns="http://www.w3.org/2000/svg"><path d="M61.236 1.252A1.166 1.166 0 0 0 60.222.238a32.031 32.031 0 0 0-14.267 1.49 32.034 32.034 0 0 0-12.167 7.599l-7.77 7.77L14.8 18.545c-.255.033-.493.15-.675.332L3.31 29.691a1.166 1.166 0 0 0 .612 1.971l8.177 1.515 1.607 1.607-3.42 1.852a1.166 1.166 0 0 0-.27 1.85l12.972 12.972a1.166 1.166 0 0 0 1.85-.27l1.853-3.42 1.607 1.607 1.514 8.177a1.166 1.166 0 0 0 1.971.612L42.598 47.35c.183-.182.3-.42.332-.675l1.447-11.217 7.771-7.771a32.034 32.034 0 0 0 7.599-12.167 32.035 32.035 0 0 0 1.49-14.267zM12.277 30.84l-5.75-1.066 8.966-8.966 7.825-1.01-11.04 11.041zm11.255 17.865L12.77 37.943l2.657-1.439 9.543 9.544-1.438 2.656zm17.136-2.723L31.7 54.948l-1.065-5.75 11.041-11.041-1.01 7.825zm9.83-19.944l-21.12 21.12-15.061-15.06 21.12-21.121A29.688 29.688 0 0 1 46.365 4.06a13.983 13.983 0 0 0 3.833 7.217 13.984 13.984 0 0 0 7.218 3.834 29.696 29.696 0 0 1-6.917 10.927zm7.62-13.168a11.65 11.65 0 0 1-6.271-3.242 11.647 11.647 0 0 1-3.242-6.27 29.743 29.743 0 0 1 10.415-.903 29.748 29.748 0 0 1-.902 10.415z" fill="#fff"/><path d="M34.3 17.17a7.082 7.082 0 0 0 0 10.005 7.052 7.052 0 0 0 5.002 2.068c1.81 0 3.623-.69 5.002-2.068a7.082 7.082 0 0 0 0-10.004 7.082 7.082 0 0 0-10.004 0zm8.355 8.356a4.747 4.747 0 0 1-6.706 0 4.747 4.747 0 0 1 0-6.706 4.727 4.727 0 0 1 3.353-1.387c1.214 0 2.428.462 3.353 1.387a4.747 4.747 0 0 1 0 6.706zM15.183 46.512a1.166 1.166 0 0 0-1.65 0L3.53 56.516a1.166 1.166 0 1 0 1.649 1.649L15.183 48.16a1.166 1.166 0 0 0 0-1.648zm1.539 3.188l-4.507 4.507a1.166 1.166 0 1 0 1.649 1.649l4.507-4.507a1.166 1.166 0 1 0-1.65-1.65zm-6.085 6.568c-.488 0-.933.315-1.098.773a1.178 1.178 0 0 0 .375 1.309c.396.314.975.33 1.388.04.442-.309.621-.903.41-1.402a1.172 1.172 0 0 0-1.075-.72zm1.076.72c.03.07-.028-.07 0 0zm-4.374 2.095l-.621.62a1.166 1.166 0 1 0 1.649 1.65l.62-.62a1.166 1.166 0 1 0-1.648-1.65zM6.498 48.82a1.166 1.166 0 0 0-1.65 0L.343 53.327a1.166 1.166 0 1 0 1.649 1.65l4.507-4.508a1.166 1.166 0 0 0 0-1.649zm1.861-.447c.473-.12.828-.531.877-1.017a1.176 1.176 0 0 0-.636-1.154 1.173 1.173 0 0 0-1.364.232 1.18 1.18 0 0 0-.126 1.46c.274.4.776.598 1.249.479zm3.015-2.78l.62-.62a1.166 1.166 0 1 0-1.648-1.65l-.62.621a1.166 1.166 0 1 0 1.648 1.649z" fill="#fff"/></svg>